<?xml version="1.0" encoding="UTF-8" standalone="no"?><!DOCTYPE svg PUBLIC "-//W3C//DTD SVG 1.1//EN" "http://www.w3.org/Graphics/SVG/1.1/DTD/svg11.dtd"><svg width="3643px" height="977px" version="1.1" xmlns="http://www.w3.org/2000/svg" xmlns:xlink="http://www.w3.org/1999/xlink" xml:space="preserve" xmlns:serif="http://www.serif.com/" style="fill-rule:evenodd;clip-rule:evenodd;stroke-linejoin:round;stroke-miterlimit:2;"><rect id="Artboard2" x="0" y="-0" width="3642.95" height="976.198" style="fill:none;"/><g><path d="M1139.28,535.06C1246.17,535.06 1309.19,468.077 1309.19,354.988L1309.19,315.262L1146.22,315.262L1146.22,361.077L1259.22,361.077L1259.22,368.616C1259.22,438.789 1210.36,486.925 1139.28,486.925C1057.66,486.925 1006.85,421.971 1006.85,316.712L1006.85,316.422C1006.85,213.192 1056.82,150.848 1139.28,150.848C1195.64,150.848 1234.51,181.295 1253.11,234.36L1254.22,237.55L1306.69,237.55L1305.31,232.04C1286.7,158.097 1231.45,102.713 1139.28,102.713C1027.39,102.713 955.764,185.645 955.764,316.422L955.764,316.712C955.764,450.098 1027.39,535.06 1139.28,535.06Z" style="fill-rule:nonzero;"/><path d="M1357.13,528.101L1407.1,528.101L1407.1,362.527L1502.89,362.527L1588.68,528.101L1647.26,528.101L1554.53,354.408C1604.5,337.88 1635.04,292.934 1635.04,234.94L1635.04,234.36C1635.04,158.967 1584.51,109.672 1507.33,109.672L1357.13,109.672L1357.13,528.101ZM1407.1,316.422L1407.1,156.068L1500.67,156.068C1552.03,156.068 1583.4,185.645 1583.4,235.52L1583.4,236.1C1583.4,287.425 1554.25,316.422 1502.89,316.422L1407.1,316.422Z" style="fill-rule:nonzero;"/><path d="M1649.94,528.101L1702.41,528.101L1742.95,408.343L1904.25,408.343L1944.79,528.101L1997.26,528.101L1848.45,109.672L1799.03,109.672L1649.94,528.101ZM1823.18,172.306L1824.29,172.306L1889.26,363.977L1758.22,363.977L1823.18,172.306Z" style="fill-rule:nonzero;"/><path d="M2182.97,535.06C2266.81,535.06 2330.94,483.155 2346.21,403.123L2346.77,400.223L2296.24,400.223L2295.41,402.833C2277.92,457.928 2239.05,486.925 2182.97,486.925C2103.28,486.925 2051.37,420.521 2051.37,318.741L2051.37,318.451C2051.37,216.672 2103.01,150.848 2182.97,150.848C2239.33,150.848 2278.75,180.425 2294.3,231.17L2296.24,237.55L2346.77,237.55L2346.21,234.65C2330.94,155.488 2266.26,102.713 2182.97,102.713C2071.36,102.713 2000,186.805 2000,318.451L2000,318.741C2000,450.388 2071.63,535.06 2182.97,535.06Z" style="fill-rule:nonzero;"/><path d="M2389.71,528.101L2637.91,528.101L2637.91,481.125L2439.68,481.125L2439.68,337.3L2627.64,337.3L2627.64,290.904L2439.68,290.904L2439.68,156.648L2637.91,156.648L2637.91,109.672L2389.71,109.672L2389.71,528.101Z" style="fill-rule:nonzero;"/><path d="M2684.46,528.101L2916.56,528.101L2916.56,506.933L2706.39,506.933L2706.39,109.672L2684.46,109.672L2684.46,528.101Z" style="fill-rule:nonzero;"/><rect x="2952.84" y="109.672" width="21.933" height="418.428" style="fill-rule:nonzero;"/><path d="M3029.93,528.101L3051.86,528.101L3051.86,326.571L3245.37,326.571L3245.37,305.693L3051.86,305.693L3051.86,130.84L3262.03,130.84L3262.03,109.672L3029.93,109.672L3029.93,528.101Z" style="fill-rule:nonzero;"/><path d="M3300.8,528.101L3534.29,528.101L3534.29,506.933L3322.74,506.933L3322.74,323.961L3524.3,323.961L3524.3,303.083L3322.74,303.083L3322.74,130.84L3534.29,130.84L3534.29,109.672L3300.8,109.672L3300.8,528.101Z" style="fill-rule:nonzero;"/><path d="M1196.35,882.793C1253.75,882.793 1293.23,850.583 1303.63,804.096L1304.02,802.355L1288.8,802.355L1288.41,803.922C1277.63,843.096 1245.27,869.909 1196.35,869.909C1130.87,869.909 1088.11,823.77 1088.11,753.431L1088.11,753.083C1088.11,682.395 1130.29,637.127 1196.35,637.127C1245.27,637.127 1277.82,664.114 1288.03,702.417L1288.8,704.681L1304.02,704.681L1303.63,702.94C1293.23,656.627 1253.55,624.243 1196.35,624.243C1120.85,624.243 1072.51,674.386 1072.51,753.083L1072.51,753.431C1072.51,831.605 1121.62,882.793 1196.35,882.793Z" style="fill-rule:nonzero;"/><path d="M1519.1,879.136L1534.31,879.136L1534.31,756.391L1710.16,756.391L1710.16,879.136L1725.37,879.136L1725.37,627.899L1710.16,627.899L1710.16,743.855L1534.31,743.855L1534.31,627.899L1519.1,627.899L1519.1,879.136Z" style="fill-rule:nonzero;"/><path d="M2044.08,882.793C2108.21,882.793 2148.08,846.926 2148.08,791.909L2148.08,627.899L2132.86,627.899L2132.86,791.386C2132.86,839.266 2099.16,869.909 2044.08,869.909C1989.57,869.909 1955.67,839.266 1955.67,791.386L1955.67,627.899L1940.46,627.899L1940.46,791.909C1940.46,846.752 1980.13,882.793 2044.08,882.793Z" style="fill-rule:nonzero;"/><path d="M2363.16,879.136L2378.38,879.136L2378.38,771.886L2451.76,771.886C2455.03,771.886 2459.46,771.712 2462.35,771.364L2531.88,879.136L2549.6,879.136L2478.15,769.275C2518.4,761.962 2542.47,736.02 2542.47,699.98L2542.47,699.632C2542.47,655.408 2508.38,627.899 2453.3,627.899L2363.16,627.899L2363.16,879.136ZM2378.38,759.35L2378.38,640.435L2451.95,640.435C2498.56,640.435 2526.87,662.547 2526.87,699.806L2526.87,700.154C2526.87,737.065 2498.75,759.35 2452.53,759.35L2378.38,759.35Z" style="fill-rule:nonzero;"/><path d="M2888.53,882.793C2945.92,882.793 2985.4,850.583 2995.8,804.096L2996.19,802.355L2980.97,802.355L2980.59,803.922C2969.8,843.096 2937.45,869.909 2888.53,869.909C2823.04,869.909 2780.28,823.77 2780.28,753.431L2780.28,753.083C2780.28,682.395 2822.46,637.127 2888.53,637.127C2937.45,637.127 2970,664.114 2980.2,702.417L2980.97,704.681L2996.19,704.681L2995.8,702.94C2985.4,656.627 2945.73,624.243 2888.53,624.243C2813.03,624.243 2764.68,674.386 2764.68,753.083L2764.68,753.431C2764.68,831.605 2813.8,882.793 2888.53,882.793Z" style="fill-rule:nonzero;"/><path d="M3211.27,879.136L3226.49,879.136L3226.49,756.391L3402.33,756.391L3402.33,879.136L3417.55,879.136L3417.55,627.899L3402.33,627.899L3402.33,743.855L3226.49,743.855L3226.49,627.899L3211.27,627.899L3211.27,879.136Z" style="fill-rule:nonzero;"/><path d="M574.699,104.774L576.524,93.405L581.304,94.424C588.415,95.939 596.22,99.407 596.22,101.055C596.22,101.85 595.057,105.216 593.643,108.54C585.161,128.449 576.129,153.587 577.127,154.526C578.877,156.196 622.398,166.817 627.471,166.817C629.904,166.817 632.278,167.431 632.742,168.178C633.724,169.768 625.866,188.648 624.228,188.648C623.614,188.648 617.858,186.252 611.43,183.323C597.223,176.847 574.561,169.538 571.883,170.562C570.111,171.245 556.422,210.189 557.559,211.326C557.825,211.593 566.911,213.604 577.746,215.802C625.561,225.479 667.685,245.223 688.032,267.491C697.571,277.926 699.833,284.274 698.622,297.238C697.789,306.131 691.468,322.423 686.549,328.35C685.397,329.743 685.872,334.736 687.221,335.334C687.344,335.387 703.295,336.384 722.671,337.553C774.168,340.658 794.686,346.547 819.749,365.411C836.425,377.959 862.625,406.708 860.507,410.133C860.09,410.8 853.614,409.631 846.108,407.535C819.066,399.986 791.565,396.791 768.668,398.546L754.771,399.607L759.311,403.246C763.658,406.713 768.017,410.165 772.386,413.606C783.355,422.259 792.733,434.369 799.85,449.066C805.809,461.368 817.588,494.7 817.631,499.358C817.679,505.167 811.096,501.748 797.577,488.939C764.811,457.879 734.792,445.721 683.546,442.75C620.653,439.101 595.398,432.907 577.527,416.743C564.537,405.001 564.483,403.539 575.926,373.867C581.085,360.498 585.3,348.43 585.3,347.054C585.3,341.773 550.127,330.025 528.505,328.089L517.467,327.102L493.749,399.389C480.7,439.149 469.55,473.687 468.974,476.141C467.971,480.392 468.131,480.552 472.426,479.662C494.949,474.962 543.016,469.072 569.663,467.744C630.496,464.713 664.762,470.662 708.496,491.852C728.219,501.406 740.436,510.257 756.131,526.362C777.796,548.593 795.673,577.145 804.326,603.333C806.47,609.831 810.29,624.352 812.813,635.609C815.331,646.86 819.151,659.493 821.296,663.675C825.542,671.955 838.015,684.694 852.739,695.796C866.551,706.215 876.975,717.173 880.427,724.903C887.197,740.075 885.265,763.468 875.935,779.265C868.674,791.561 858.73,800.305 843.318,807.939C831.56,813.77 828.892,814.464 815.785,815.136C799.818,815.957 791.314,814.325 783.312,808.905C776.259,804.125 776.008,802.13 782.074,799.067C791.581,794.271 802.181,781.863 799.268,778.945C798.66,778.336 793.176,775.536 787.094,772.724C764.091,762.092 756.371,749.539 753.986,718.875C753.25,709.411 752.226,701.243 751.708,700.725C751.191,700.208 747.563,702.411 743.642,705.623C732.098,715.081 731.586,723.462 741.183,745.858C754.744,777.499 751.639,794.49 730.492,804.408C722.02,808.382 720.884,808.505 693.682,808.361C678.243,808.275 648.192,807.656 626.906,806.984L588.202,805.757L574.513,812.26L560.823,818.769L553.424,816.256C546.612,813.946 545.806,813.946 543.235,816.278C541.693,817.665 540.039,820.791 539.554,823.218C539.068,825.64 537.553,828.745 536.187,830.116C532.08,834.218 518.358,837.686 502.941,838.518C489.641,839.233 487.534,838.934 477.99,834.976C466.76,830.319 463.671,827.662 463.661,822.637C463.65,817.697 479.9,794.88 490.265,785.288C495.365,780.566 499.537,775.69 499.537,774.447C499.537,771.796 509.273,762.876 514.224,760.993C520.583,758.576 545.321,756.4 585.3,754.73C607.172,753.823 631.03,752.644 638.322,752.116L651.574,751.15L646.116,748.851C643.118,747.586 629.925,743.121 616.802,738.933L592.944,731.321L565.342,731.369C550.159,731.395 532.48,732.105 526.046,732.948C477.76,739.264 437.637,740.849 409.112,737.573C396.666,736.143 395.466,736.266 388.84,739.728C382.411,743.089 381.414,744.439 377.327,755.247C374.868,761.761 373.268,768.163 373.769,769.475C374.873,772.351 385.212,772.729 390.968,770.105C394.169,768.648 395.743,768.915 400.192,771.662C408.328,776.693 428.323,798.363 432.18,806.333C438.16,818.684 437.776,819.212 419.616,823.394C406.114,826.504 399.451,827.081 376.735,827.081C358.655,827.086 349.832,827.63 349.832,828.756C349.832,832.714 335.294,874.262 333.016,876.801C329.485,880.749 324.465,879.543 322.635,874.304C321.37,870.703 322.267,866.505 327.671,850.687C333.251,834.347 335.486,824.989 333.849,824.851C333.635,824.835 323.638,823.752 311.629,822.445C299.62,821.138 268.3,819.521 242.026,818.849L194.258,817.633L185.455,813.322C178.093,809.721 175.975,807.699 172.497,800.967C170.214,796.539 167.952,789.758 167.472,785.896L166.602,778.88L157.25,776.827C136.22,772.212 126.981,768.536 121.923,762.775C111.712,751.145 107.951,736.88 112.123,725.548C117.65,710.536 128.618,698.965 145.77,690.067C160.771,682.283 182.98,668.989 182.98,667.794C182.98,667.276 179.155,657.674 174.487,646.454C161.459,615.166 157.986,596.131 156.946,550.428C155.89,503.738 158.371,486.741 172.278,445.572C177.416,430.357 181.182,417.202 180.649,416.332C180.11,415.468 174.978,414.737 169.243,414.705C154.124,414.63 137.085,411.195 122.057,405.193C104.036,398.007 104.105,395.905 122.771,382.44C130.395,376.94 137.469,371.616 138.488,370.602C157.554,351.685 190.129,321.895 199.139,315.141C205.626,310.287 213.901,302.215 217.726,297.03C227.168,284.215 243.071,269.39 252.482,264.621C280.917,250.211 317.087,251.406 348.706,267.805C362.619,275.023 377.231,288.782 400.368,316.454C443.943,368.585 448.648,376.182 448.595,394.358C448.552,409.247 444.578,418.461 433.364,429.68C417.904,445.14 403.98,447.866 383.142,439.528C371.128,434.716 360.464,433.329 353.342,435.655C350.418,436.61 349.832,437.933 349.832,443.577C349.832,452.177 355.001,465.775 361.067,473.132C366.412,479.614 391.123,490.465 397.872,490.486C406.674,490.513 448.163,484.431 450.19,482.761C452.858,480.574 557.82,167.474 556.572,165.446C555.691,164.033 521.357,155.534 508.372,153.518C503.544,152.771 502.599,152.088 503.469,149.959C504.061,148.508 505.624,144.166 506.942,140.309C508.265,136.446 509.545,133.048 509.796,132.744C510.041,132.44 517.137,135.006 525.555,138.436C543.24,145.644 559.959,150.573 561.501,149.031C563.662,146.871 572.934,115.785 574.699,104.774ZM245.184,386.478C236.243,394.337 219.881,404.286 211.047,407.225C204.133,409.53 203.93,409.802 196.701,426.212C176.669,471.686 170.379,521.012 180.03,556.915C182.548,566.267 184.767,570.641 190.262,577.081C198.227,586.416 205.312,599.834 203.018,601.253C200.942,602.533 189.761,594.563 185.77,588.961C183.978,586.438 180.457,580.772 177.955,576.366L173.399,568.363L174.364,580.537C176.29,604.87 188.432,642.411 200.228,660.517C207.606,671.837 238.073,700.565 241.903,699.813C247.355,698.736 247.526,694.564 242.405,687.122C231.596,671.411 229.793,665.334 229.777,644.561C229.756,616.937 235.848,600.938 254.648,579.305C264.683,567.755 268.993,564.709 262.602,573.688C260.751,576.286 255.592,585.974 251.132,595.219L243.029,612.024L242.49,633.149C241.967,653.624 242.095,654.649 246.747,666.673C250.46,676.292 253.49,681.093 260.239,688.045C265.029,692.979 270.007,697.012 271.314,697.012C276.382,697.012 271.655,701.366 253.058,713.817C242.421,720.944 232.3,728.077 230.567,729.667C228.838,731.262 221.263,736.181 213.73,740.603C195.97,751.038 189.542,756.826 185.087,766.397C178.168,781.254 181.79,794.319 194.562,800.572C199.95,803.213 206.101,803.693 248.342,804.786C274.573,805.464 303.051,806.734 311.629,807.614C320.202,808.489 330.386,809.225 334.259,809.246L341.296,809.289L344.897,797.446C346.876,790.932 348.269,785.4 347.996,785.154C347.719,784.914 334.862,783.895 319.423,782.903C303.984,781.905 286.443,780.332 280.442,779.409C273.741,778.379 261.605,778.15 249.025,778.811C237.011,779.446 228.161,779.302 227.648,778.464C226.688,776.917 232.354,772.265 240.063,768.28C249.948,763.169 287.574,751.785 313.187,746.151C334.425,741.483 341.941,739.131 355.14,733.038L367.885,727.149L374.292,707.794C377.813,697.146 382.972,682.118 385.756,674.404L390.824,660.368C390.824,660.368 399.856,634.563 400.438,633.037C400.923,631.773 408.632,609.335 417.568,583.178C424.898,561.716 432.249,540.265 439.622,518.824C442.812,509.59 445.09,501.7 444.679,501.289C444.269,500.883 412.109,505.256 394.633,505.256C375.339,505.256 350.093,484.932 348.173,484.932C347.612,484.932 346.748,488.325 346.257,492.476C344.902,503.887 339.989,516.322 333.267,525.354C328.594,531.628 324.683,534.727 316.046,539.006C303.216,545.354 298.009,545.354 307.612,538.995C322.725,528.993 332.947,514.311 334.926,499.747C335.822,493.137 333.555,465.017 331.997,463.46C331.715,463.177 327.452,467.178 322.523,472.347C315.993,479.192 311.234,482.612 304.982,484.954C300.266,486.719 296.105,487.866 295.737,487.498C295.374,487.136 297.396,485.188 300.234,483.177C309.17,476.845 310.962,475.036 317.983,465.279C325.318,455.084 331.032,443.764 331.085,439.309C331.112,437.106 329.319,437.799 321.893,442.867C316.82,446.33 307.868,450.811 302.01,452.817C296.153,454.828 284.032,459.704 275.086,463.657C266.139,467.616 258.473,470.507 258.057,470.086C257.641,469.669 258.996,467.509 261.071,465.279C265.387,460.648 276.494,454.769 294.451,447.599C307.639,442.339 317.087,437.132 317.087,435.132C317.087,434.47 312.381,433.489 306.636,432.95C282.549,430.699 262.752,412.944 255.944,387.481C254.909,383.619 253.608,380.455 253.048,380.455C252.487,380.455 248.95,383.165 245.184,386.478ZM280.89,269.678C268.156,272.004 251.292,281.265 240.457,291.887L230.54,301.607L241.455,303.383C255.288,305.635 267.964,310.452 267.964,313.45C267.964,315.915 267.419,315.936 248.908,314.096C234.082,312.629 220.238,316.928 204.106,328.019C190.758,337.201 148.949,376.129 151.521,376.988C154.385,377.943 176.952,373.157 186.464,369.578C195.49,366.185 207.04,358.679 221.919,346.537C229.564,340.3 234.44,338.236 234.44,341.239C234.44,343.506 219.406,362.552 214.077,367.033C200.078,378.812 175.186,386.686 151.889,386.702C139.933,386.713 136.098,387.295 132.539,389.637C130.096,391.248 128.714,392.944 129.467,393.403C134.801,396.705 157.944,400.728 171.58,400.728C184.933,400.728 188.55,400.109 199.161,396.028C222.804,386.921 233.922,377.036 252.45,348.649C265.808,328.18 267.926,326.921 266.529,340.279C265.963,345.651 265.435,357.201 265.344,365.95C265.195,380.343 265.59,382.685 269.5,390.682C275.528,403.006 281.936,409.733 292.04,414.337C299.941,417.943 303.483,418.418 331.901,419.682C365.601,421.181 372.169,422.099 386.476,427.311C398.405,431.654 408.13,431.803 415.914,427.764L421.958,424.628L413.108,422.851C408.243,421.875 401.819,419.917 398.837,418.498C393.625,416.028 387.261,409.567 387.261,406.756C387.261,404.19 393.796,405.422 404.151,409.946C409.87,412.448 417.797,414.972 421.761,415.553C428.179,416.497 429.262,416.215 431.508,413.003C434.532,408.693 434.783,405.406 432.089,405.406C428.248,405.401 411.353,396.374 407.629,392.336C404.716,389.172 404.257,387.785 405.666,386.377C407.074,384.969 410.617,386.142 420.859,391.408C431.95,397.111 434.458,397.895 435.626,396.006C439.376,389.941 431.796,376.588 408.936,348.969C398.603,336.486 388.264,324.002 377.925,311.519C365.057,295.989 351.982,284.162 342.144,279.158C325.782,270.836 298.057,266.546 280.89,269.678ZM304.608,324.925C311.042,323.976 321.989,323.095 328.941,322.978C339.733,322.791 342.347,323.277 346.871,326.323C349.858,328.329 352.899,332.111 353.838,334.987C355.577,340.311 355.028,349.268 352.958,349.268C352.296,349.268 348.951,346.462 345.521,343.032C337.668,335.179 334.11,334.773 335.262,341.879C335.886,345.731 335.305,347.668 332.872,349.871C325.692,356.374 314.777,351.221 315.87,341.842L316.473,336.694L309.938,337.675C305.11,338.396 301.52,337.82 296.211,335.472C284.534,330.308 286.71,327.577 304.608,324.925ZM356.068,749.928C352.36,752.094 324.87,759.264 310.781,761.74C303.707,762.983 297.604,764.316 297.22,764.701C295.107,766.813 311.325,769.288 331.181,769.891L353.854,770.574L356.724,761.473C358.298,756.469 359.925,751.497 360.336,750.419C361.2,748.173 359.434,747.971 356.068,749.928ZM556.454,484.361L508.11,491.345C484.098,494.812 463.559,498.515 462.466,499.571C460.23,501.732 451.561,526.539 421.606,616.489L400.907,678.655C400.907,678.655 394.633,691.811 395.855,711.166C396.374,719.392 411.038,725.507 449.422,726.242C473.247,726.698 484.84,726.37 485.992,725.212C487.208,723.996 487.022,723.521 485.341,723.521C479.862,723.521 456.816,710.643 448.904,703.158C439.04,693.828 434.49,684.993 432.655,671.629C430.611,656.729 432.324,656.388 439.344,670.301C448.574,688.573 459.617,700.4 474.368,707.821C486.83,714.084 513.045,723.009 514.549,721.499C515.029,721.024 513.072,719.429 510.207,717.957C499.212,712.313 485.005,700.902 477.648,691.811C463.063,673.79 457.28,651.389 460.534,625.547C463.058,605.499 465,601.098 465.128,615.144C465.346,639.092 473.631,665.628 486.232,682.742C494.789,694.372 501.218,699.557 518.102,708.461C530.65,715.076 532.837,715.722 542.605,715.711L553.333,715.695C553.333,715.695 536.065,667.964 533.061,658.698C528.286,643.968 527.604,639.877 527.604,626.022C527.604,599.284 536.993,571.708 552.048,554.232C568.484,535.154 599.074,521.492 618.151,524.714C621.64,525.306 624.254,526.032 623.956,526.33C623.662,526.624 618.045,527.979 611.483,529.334C595.382,532.658 587.722,536.312 577.255,545.658C569.199,552.86 556.433,570.049 553.451,577.721C541.784,607.724 541.714,642.037 553.269,668.167C565.748,696.378 591.493,716.223 628.186,725.916C654.337,732.83 670.465,741.788 678.088,753.636C683.311,761.756 680.867,762.455 635.778,765.784C613.59,767.421 582.808,769.427 567.369,770.243C533.248,772.047 523.811,773.86 517.932,779.739C512.73,784.935 512.085,790.574 516.689,790.574C518.401,790.574 519.809,791.14 519.809,791.833C519.809,792.522 522.183,795.68 525.086,798.849C531.839,806.221 536.001,806.243 542.312,798.945C548.079,792.271 552.672,792.628 556.513,800.044C557.809,802.556 559.415,804.61 560.087,804.61C560.754,804.61 564.142,802.519 567.615,799.964C578.124,792.234 585.348,791.519 637.543,793.055C704.949,795.04 716.083,794.864 721.999,791.711C735.277,784.626 736.387,774.954 725.952,757.269C718.489,744.62 715.746,734.58 715.613,719.392L715.512,708.248L730.556,692.739C746.374,676.436 750.257,670.397 756.27,652.718C759.198,644.107 759.956,638.607 759.956,625.878C759.956,617.076 760.628,609.452 761.455,608.945C762.277,608.433 764.491,611.026 766.363,614.702C769.324,620.495 769.799,624.07 769.932,641.653C770.017,652.803 769.468,676.036 768.7,693.283C767.393,722.902 767.494,725.244 770.588,735.428C772.648,742.198 775.486,747.763 778.212,750.377C782.842,754.81 792.338,759.382 796.937,759.398C803.211,759.414 811.25,762.801 813.624,766.429C815.95,769.977 815.956,770.969 813.683,778.486C812.317,782.994 809.847,789.678 808.188,793.348C806.534,797.014 805.174,800.348 805.174,800.753C805.174,802.642 817.545,801.116 823.254,798.523C828.162,796.293 830.237,794.127 832.221,789.171C835.236,781.639 835.566,764.818 832.803,759.974C830.797,756.464 824.47,750.958 817.135,746.338C797.63,734.052 791.389,720.347 795.731,699.349C797.001,693.209 797.022,693.193 797.198,698.234C797.625,710.275 806.262,721.558 828.146,738.656C846.583,753.06 848.06,755.557 848.055,772.255C848.05,779.761 848.573,785.896 849.207,785.896C851.741,785.896 861.376,770.617 863.617,763.047C864.924,758.624 865.991,750.014 865.991,743.911C865.991,729.331 862.838,724.396 843.649,708.962C816.185,686.871 808.866,674.91 796.681,632.157C786.598,596.771 780.49,582.885 764.453,558.857C742.522,526.01 704.223,500.515 657.816,487.882C646.666,484.847 640.851,484.447 603.235,484.084C580.077,483.865 559.026,483.988 556.454,484.361ZM166.602,696.202C125.519,721.633 117.431,734.607 132.774,750.467C139.485,757.403 149.696,760.945 162.948,760.945C171.505,760.945 172.113,760.689 174.524,756.031C175.922,753.321 181.182,747.01 186.213,741.996L195.357,732.878L178.12,732.878C165.028,732.878 161.038,732.409 161.529,730.931C162.548,727.826 173.954,722.017 179.08,721.99C186.416,721.947 221.914,715.86 225.258,714.068C229.398,711.854 227.35,709.208 211.793,696.644C204.949,691.112 198.387,685.425 197.213,684.006C196.034,682.582 193.927,681.483 192.535,681.568C191.137,681.648 179.47,688.237 166.602,696.202ZM395.839,787.715C397.733,794.101 404.375,803.074 409.544,806.227C415.381,809.785 416.896,810.014 416.864,807.342C416.837,804.84 401.974,787.928 397.872,785.736C395.082,784.242 394.873,784.45 395.839,787.715ZM493.53,799.195C483.874,809.758 478.555,817.083 480.535,817.083C482.338,817.083 500.305,798.086 502.653,793.695C505.747,787.918 501.495,790.478 493.53,799.195ZM649.274,370.602C654.346,374.777 686.661,297.784 686.661,293.711C686.661,283.703 660.152,248.863 556.156,228.36C554.276,227.989 552.368,228.232 551.909,228.979C550.165,231.801 527.604,293.426 527.604,295.56C524.24,305.621 522.925,310.078 522.925,311.241C522.925,312.372 588.42,328.019 626.234,351.397C634.489,356.5 645.883,367.811 649.274,370.602ZM676.274,349.657C675.602,350.73 672.006,358.972 668.283,367.983C665.268,375.281 662.233,382.568 659.176,389.85C653.425,403.363 637.986,406.825 613.371,400.125C605.225,397.911 595.046,395.91 590.757,395.681C583.918,395.318 582.904,395.665 582.504,398.482C580.242,414.305 627.866,428.703 682.761,428.794C718.067,428.847 753.517,439.602 782.954,459.187C787.457,462.185 791.143,463.854 791.143,462.9C791.143,459.464 777.219,441.832 765.974,431.024C753.661,419.191 740.916,409.994 727.27,403.091L718.761,398.786C718.761,398.786 725.952,385.182 785.686,385.225C799.812,385.235 819.316,387.193 824.315,389.114C830.584,391.52 826.204,386.526 815.705,379.303C786.571,359.26 762.922,352.421 712.065,349.337C678.376,347.294 677.747,347.299 676.274,349.657ZM360.885,795.968C355.465,812.735 355.092,812.41 379.685,812.41L396.81,812.41L391.699,805C381.91,790.809 376.314,785.896 369.923,785.896C364.182,785.896 364.113,785.976 360.885,795.968ZM596.865,357.318C594.838,361.234 588.42,378.263 588.42,379.714C588.42,379.901 592.55,380.861 597.596,381.853C602.643,382.845 612.486,385.747 619.474,388.292C626.458,390.842 634.257,392.928 636.807,392.928C641.027,392.928 641.438,392.464 641.438,387.668C641.438,383.48 640.093,381.17 634.812,376.31C623.55,365.939 603.961,352.384 600.232,352.384C599.784,352.384 598.269,354.603 596.865,357.318ZM502.989,814.405C498.518,818.934 494.859,823.229 494.859,823.944C494.859,825.886 515.243,823.341 520.199,820.78C522.557,819.564 524.483,818.241 524.483,817.846C524.483,816.902 513.034,806.264 511.957,806.211C511.498,806.189 507.465,809.876 502.989,814.405ZM278.1,178.842C264.683,180.336 237.208,187.959 225.253,193.502C198.494,205.906 178.099,222.209 161.87,244.151C143.657,268.782 136.797,290.153 134.652,328.948C133.921,342.221 133.66,353.621 134.071,354.288C135.639,356.827 145.087,338.337 147.013,317.302C149.429,290.9 158.792,267.752 175.405,247.101C188.075,231.353 203.61,218.672 221.962,209.117C262.656,187.922 305.393,184.513 348.274,199.034C391.395,213.641 426.578,249.347 442.001,294.138C446.237,306.435 446.957,311.268 448.584,338.353C450.094,363.453 450.82,368.761 452.74,368.761C455.879,368.761 460.806,353.616 460.076,331.38C459.083,301.063 454.533,283.698 441.468,260.379C429.902,239.734 417.776,226.045 396.65,209.789C364.977,185.42 321.317,174.025 278.1,178.842"/></g></svg>