<?xml version="1.0" encoding="UTF-8" standalone="no"?><!DOCTYPE svg PUBLIC "-//W3C//DTD SVG 1.1//EN" "http://www.w3.org/Graphics/SVG/1.1/DTD/svg11.dtd"><svg width="1853px" height="832px" version="1.1" xmlns="http://www.w3.org/2000/svg" xmlns:xlink="http://www.w3.org/1999/xlink" xml:space="preserve" xmlns:serif="http://www.serif.com/" style="fill-rule:evenodd;clip-rule:evenodd;stroke-linejoin:round;stroke-miterlimit:2;"><rect id="Artboard4" x="0" y="-0" width="1852.05" height="831.73" style="fill:none;"/><g><g><path d="M146.075,328.956C212.355,328.956 251.435,287.421 251.435,217.296L251.435,192.663L150.379,192.663L150.379,221.072L220.447,221.072L220.447,225.747C220.447,269.26 190.147,299.108 146.075,299.108C95.461,299.108 63.956,258.831 63.956,193.562L63.956,193.382C63.956,129.371 94.944,90.712 146.075,90.712C181.023,90.712 205.125,109.592 216.659,142.497L217.348,144.474L249.886,144.474L249.025,141.058C237.49,95.208 203.231,60.865 146.075,60.865C76.695,60.865 32.279,112.289 32.279,193.382L32.279,193.562C32.279,276.273 76.695,328.956 146.075,328.956Z" style="fill:rgb(91,139,165);fill-rule:nonzero;"/><path d="M281.159,324.641L312.147,324.641L312.147,221.971L371.541,221.971L424.738,324.641L461.063,324.641L403.563,216.936C434.551,206.688 453.488,178.818 453.488,142.856L453.488,142.497C453.488,95.747 422.156,65.18 374.296,65.18L281.159,65.18L281.159,324.641ZM312.147,193.382L312.147,93.949L370.164,93.949C402.013,93.949 421.467,112.289 421.467,143.216L421.467,143.575C421.467,175.401 403.391,193.382 371.541,193.382L312.147,193.382Z" style="fill:rgb(91,139,165);fill-rule:nonzero;"/><path d="M462.726,324.641L495.263,324.641L520.398,250.38L620.422,250.38L645.556,324.641L678.094,324.641L585.818,65.18L555.174,65.18L462.726,324.641ZM570.152,104.018L570.84,104.018L611.125,222.87L529.867,222.87L570.152,104.018Z" style="fill:rgb(91,139,165);fill-rule:nonzero;"/><path d="M793.246,328.956C845.238,328.956 885.006,296.771 894.475,247.144L894.819,245.346L863.487,245.346L862.97,246.964C852.124,281.127 828.022,299.108 793.246,299.108C743.837,299.108 711.644,257.932 711.644,194.82L711.644,194.64C711.644,131.528 743.665,90.712 793.246,90.712C828.194,90.712 852.641,109.053 862.281,140.519L863.487,144.474L894.819,144.474L894.475,142.676C885.006,93.589 844.894,60.865 793.246,60.865C724.039,60.865 679.795,113.008 679.795,194.64L679.795,194.82C679.795,276.452 724.211,328.956 793.246,328.956Z" style="fill:rgb(91,139,165);fill-rule:nonzero;"/><path d="M921.444,324.641L1075.35,324.641L1075.35,295.512L952.433,295.512L952.433,206.328L1068.98,206.328L1068.98,177.559L952.433,177.559L952.433,94.309L1075.35,94.309L1075.35,65.18L921.444,65.18L921.444,324.641Z" style="fill:rgb(91,139,165);fill-rule:nonzero;"/><path d="M1104.22,324.641L1248.14,324.641L1248.14,311.515L1117.82,311.515L1117.82,65.18L1104.22,65.18L1104.22,324.641Z" style="fill:rgb(91,139,165);fill-rule:nonzero;"/><rect x="1270.63" y="65.18" width="13.6" height="259.461" style="fill:rgb(91,139,165);fill-rule:nonzero;"/><path d="M1318.43,324.641L1332.03,324.641L1332.03,199.675L1452.03,199.675L1452.03,186.729L1332.03,186.729L1332.03,78.306L1462.36,78.306L1462.36,65.18L1318.43,65.18L1318.43,324.641Z" style="fill:rgb(91,139,165);fill-rule:nonzero;"/><path d="M1486.4,324.641L1631.18,324.641L1631.18,311.515L1500,311.515L1500,198.057L1624.99,198.057L1624.99,185.111L1500,185.111L1500,78.306L1631.18,78.306L1631.18,65.18L1486.4,65.18L1486.4,324.641Z" style="fill:rgb(91,139,165);fill-rule:nonzero;"/></g><path d="M495.821,762.972L495.821,681.009L310.965,681.009L310.965,359.833L220.862,359.833L220.862,762.972L495.821,762.972Z" style="fill:rgb(89,138,164);fill-rule:nonzero;"/><path d="M606.136,762.972L606.136,464.261L521.847,464.261L521.847,762.972L606.136,762.972ZM606.136,428.44L606.136,354.976L521.847,354.976L521.847,428.44L606.136,428.44Z" style="fill:rgb(164,94,89);fill-rule:nonzero;"/><path d="M867.593,566.26L789.116,566.26L789.116,647.616C789.116,677.973 777.49,694.366 751.912,694.366C725.753,694.366 714.708,677.973 714.708,647.009L714.708,526.189L867.593,526.189L867.593,464.261L714.708,464.261L714.708,383.512L632.163,383.512L632.163,650.652C632.163,715.616 664.135,770.865 750.168,770.865C835.039,770.865 867.593,714.401 867.593,651.259L867.593,566.26Z" style="fill:rgb(101,164,89);fill-rule:nonzero;"/><path d="M1129.05,566.26L1050.57,566.26L1050.57,647.616C1050.57,677.973 1038.95,694.366 1013.37,694.366C987.209,694.366 976.164,677.973 976.164,647.009L976.164,526.189L1129.05,526.189L1129.05,464.261L976.164,464.261L976.164,383.512L893.619,383.512L893.619,650.652C893.619,715.616 925.591,770.865 1011.62,770.865C1096.5,770.865 1129.05,714.401 1129.05,651.259L1129.05,566.26Z" style="fill:rgb(196,164,73);fill-rule:nonzero;"/><rect x="1155.08" y="354.976" width="84.29" height="407.996" style="fill:rgb(160,121,148);fill-rule:nonzero;"/><path d="M1351.42,583.26C1354.33,545.617 1374.68,526.189 1403.74,526.189C1432.81,526.189 1453.73,543.796 1456.06,583.26L1351.42,583.26ZM1540.35,636.081L1540.35,623.331C1540.35,512.832 1492.68,456.368 1404.9,456.368C1316.55,456.368 1265.39,515.867 1265.39,608.152C1265.39,716.223 1313.64,770.865 1410.14,770.865C1471.76,770.865 1519.42,736.258 1536.86,674.937L1450.25,674.937C1446.18,690.723 1426.99,701.044 1406.07,701.044C1374.1,701.044 1352.01,673.723 1349.68,636.081L1540.35,636.081Z" style="fill:rgb(198,128,69);fill-rule:nonzero;"/><path d="M1811.63,554.724C1807.56,490.368 1771.52,456.368 1687.81,456.368C1596.54,456.368 1564.57,496.439 1564.57,545.01C1564.57,575.974 1577.36,604.509 1615.73,624.545C1634.91,634.259 1650.61,639.116 1700.02,651.866C1725.6,658.545 1737.8,664.009 1737.8,679.794C1737.8,699.83 1718.62,707.723 1694.79,707.723C1659.33,707.723 1640.14,690.723 1640.14,667.045L1554.11,667.045C1555.85,730.187 1604.68,770.865 1694.2,770.865C1782.56,770.865 1819.77,731.401 1819.77,673.116C1819.77,631.831 1801.16,611.795 1774.42,598.438C1745.94,584.474 1712.23,577.795 1684.9,570.51C1661.07,563.831 1644.79,556.546 1644.79,540.76C1644.79,526.796 1658.16,515.867 1686.07,515.867C1718.62,515.867 1730.25,530.439 1732.57,554.724L1811.63,554.724Z" style="fill:rgb(98,158,130);fill-rule:nonzero;"/></g></svg>