<?xml version="1.0" encoding="UTF-8" standalone="no"?><!DOCTYPE svg PUBLIC "-//W3C//DTD SVG 1.1//EN" "http://www.w3.org/Graphics/SVG/1.1/DTD/svg11.dtd"><svg width="2134px" height="730px" version="1.1" xmlns="http://www.w3.org/2000/svg" xmlns:xlink="http://www.w3.org/1999/xlink" xml:space="preserve" xmlns:serif="http://www.serif.com/" style="fill-rule:evenodd;clip-rule:evenodd;stroke-linejoin:round;stroke-miterlimit:2;"><g transform="matrix(4.16667,0,0,4.16667,0,0)"><g transform="matrix(1.1857,0,0,1.1857,-19.1779,15.2731)"><g transform="matrix(1.33333,0,0,1.33333,0,3.33333e-06)"><path d="M30.254,52.77C28.063,53.539 26.383,54.621 26.238,55.352C26.105,56.039 26.289,56.605 26.645,56.605C27.926,56.605 35.23,53.801 35.195,53.32C35.168,52.91 35.156,52.496 35.156,52.082C35.156,51.117 34.809,51.168 30.254,52.77" style="fill:rgb(44,64,97);"/></g><g transform="matrix(0.980925,-0.194384,0.194384,0.980925,-48.2852,57.421)"><path d="M276.453,76.349C277.198,74.417 276.25,74.286 286.224,77.703C297.896,81.708 298.229,81.865 298.229,83.448C298.229,85.542 295.682,85.182 285.677,81.656C275.026,77.906 275.703,78.302 276.453,76.349Z" style="fill:rgb(44,64,97);"/></g><g transform="matrix(1,0,0,1,-37.7112,-5.8873)"><path d="M314.313,90.302C314.313,88.182 317.26,88.536 327.875,91.938C334.161,93.948 337.438,95.5 337.438,96.458C337.438,98.552 335.479,98.307 324.271,94.828C317.781,92.813 314.313,91.234 314.313,90.302Z" style="fill:rgb(44,64,97);"/></g><g transform="matrix(1,0,0,1,-41.8456,-5.37142)"><path d="M353.974,101.026C354.818,99.656 354.714,99.651 362.573,101.495C374.792,104.354 376.651,105.016 376.651,106.505C376.651,108.448 375.078,108.365 364.208,105.854C354.573,103.625 352.865,102.818 353.974,101.026Z" style="fill:rgb(44,64,97);"/></g><g transform="matrix(1,0,0,1,-45.6294,-7.17147)"><path d="M394.839,108.781C397.042,108.047 416.271,111.036 417.005,112.229C417.974,113.792 416.359,114.797 413.531,114.396C412.323,114.224 407.38,113.563 402.536,112.932C396.526,112.151 393.74,111.37 393.74,110.469C393.74,109.745 394.234,108.984 394.839,108.781Z" style="fill:rgb(44,64,97);"/></g><g transform="matrix(0.992387,-0.123156,0.123156,0.992387,-61.6139,48.2415)"><path d="M441.75,111.74C457.443,110.922 458.089,110.948 458.089,112.37C458.089,114.099 452.927,114.99 442.755,115C436.604,115.01 434.964,114.703 434.964,113.552C434.964,112.448 436.646,112 441.75,111.74Z" style="fill:rgb(44,64,97);"/></g><g transform="matrix(1,0,0,1,-60.3088,-7.48397)"><path d="M488.099,99.229C493.156,95.63 495.286,95.083 495.286,97.37C495.286,99.745 480.521,108.979 476.729,108.979C473.698,108.979 475.245,106.24 479.307,104.411C481.573,103.385 485.531,101.057 488.099,99.229Z" style="fill:rgb(44,64,97);"/></g><path d="M196.021,76.401C196.682,74.677 202.005,74.385 212.667,75.5C217.521,76.01 218.823,76.495 218.589,77.703C218.339,79.01 216.542,79.208 207.234,78.979C201.151,78.828 196.01,78.536 195.802,78.328C195.594,78.12 195.693,77.255 196.021,76.401Z" style="fill:rgb(44,64,97);"/><path d="M170.542,83.932C176.766,82.62 177.365,82.609 178.12,83.833C179.13,85.469 178.432,85.786 168.87,87.969C163.979,89.089 158.964,90.234 157.719,90.521C156.104,90.891 155.458,90.583 155.458,89.443C155.458,87.849 160.234,86.104 170.542,83.932Z" style="fill:rgb(44,64,97);"/><path d="M126.802,97.984C138.495,93.26 137.979,93.375 138.74,95.365C139.146,96.411 138.453,97.224 136.589,97.906C135.078,98.458 130.307,100.318 125.99,102.031C120.188,104.344 117.839,104.865 117.005,104.031C116.385,103.411 116.073,102.714 116.313,102.474C116.552,102.234 121.276,100.214 126.802,97.984Z" style="fill:rgb(44,64,97);"/><g transform="matrix(1,0,0,1,-60.3088,-7.48397)"><path d="M504.313,74.401C505.135,70.448 505.958,68.766 507.063,68.766C508.37,68.766 508.536,69.646 508.031,73.896C507.375,79.427 505.641,82.536 504.083,80.979C503.5,80.396 503.589,77.901 504.313,74.401Z" style="fill:rgb(44,64,97);"/></g><path d="M87.094,108.844C98.167,106.896 99.656,106.901 99.656,108.875C99.656,110.365 93.219,112.047 82.224,113.427C77.427,114.026 76.891,113.906 77.198,112.313C77.474,110.896 79.547,110.172 87.094,108.844Z" style="fill:rgb(44,64,97);"/><path d="M26.568,112.823L26.568,112.818C26.969,112.172 28.266,111.906 29.443,112.229C30.625,112.557 35.531,113.115 40.339,113.469C46.417,113.922 49.25,114.547 49.625,115.521C50.516,117.844 47.443,118.203 37.281,116.953C27.411,115.74 25.271,114.917 26.568,112.823Z" style="fill:rgb(44,64,97);"/><g transform="matrix(0.984517,-0.175292,0.175292,0.984517,-12.1,6.02895)"><path d="M19.55,86.432C21.706,84.276 23.894,82.51 24.414,82.51C27.055,82.51 26.211,85.115 22.159,89.443C19.68,92.094 16.862,95.802 15.894,97.688C13.727,101.922 12.19,102.984 11.097,101.026C10.008,99.083 14.289,91.688 19.55,86.432Z" style="fill:rgb(44,64,97);"/></g><path d="M77.536,20.021C96.339,11.349 112.036,4.214 112.417,4.172C112.797,4.125 113.38,4.526 113.708,5.057C114.594,6.484 104.083,64.688 102.661,66.25C101.677,67.328 100.734,66.609 97.688,62.458C91.411,53.911 91.422,53.911 82.755,66.276C74.354,78.276 72.568,80.208 71.495,78.469C71.115,77.854 69.333,69.005 67.536,58.802C65.74,48.599 63.948,39.932 63.557,39.542C63.167,39.151 57.896,38.87 51.844,38.917C41.474,39 39.161,38.448 42.099,36.589C42.792,36.151 58.74,28.698 77.536,20.021ZM79.047,50.589C79.047,50.729 78.375,54.656 77.552,59.318C76.729,63.979 76.193,67.927 76.359,68.094C76.667,68.401 87.089,53.703 87.089,52.964C87.089,52.734 85.667,52.047 83.922,51.443C80.875,50.38 79.047,50.063 79.047,50.589ZM72.594,26.042L53.568,34.755L60.026,35.302L66.479,35.849L79.297,26.917C86.349,22.005 92.115,17.797 92.115,17.573C92.115,17.047 94.438,16.042 72.594,26.042ZM95.63,28.974C88.448,37.594 82.432,44.964 82.276,45.344C82.115,45.729 84.443,47.245 87.443,48.714C90.448,50.182 94.693,53.323 96.875,55.693L100.849,60.005L104.979,36.859C107.255,24.125 109.021,13.62 108.906,13.505C108.792,13.391 102.823,20.354 95.63,28.974ZM85.292,27.094C76.833,33.068 69.458,38.406 68.901,38.964C68.219,39.651 68.583,44.047 70.01,52.427C71.177,59.276 72.276,65.016 72.448,65.188C72.615,65.354 73.328,61.745 74.026,57.161C74.724,52.578 75.755,47.927 76.318,46.818C77.156,45.182 84.646,36.036 99.99,17.911C100.807,16.948 101.292,16.172 101.068,16.198C100.844,16.224 93.745,21.125 85.292,27.094Z" style="fill:rgb(44,64,97);"/></g></g></svg>