<?xml version="1.0" encoding="UTF-8" standalone="no"?><!DOCTYPE svg PUBLIC "-//W3C//DTD SVG 1.1//EN" "http://www.w3.org/Graphics/SVG/1.1/DTD/svg11.dtd"><svg width="3946px" height="1213px" version="1.1" xmlns="http://www.w3.org/2000/svg" xmlns:xlink="http://www.w3.org/1999/xlink" xml:space="preserve" xmlns:serif="http://www.serif.com/" style="fill-rule:evenodd;clip-rule:evenodd;stroke-linejoin:round;stroke-miterlimit:2;"><g transform="matrix(1,0,0,1,-83.5512,-5705.99)"><g id="Artboard2" transform="matrix(2.35671,0,0,0.724157,10259.6,6882.84)"><rect x="-4317.93" y="-1625.13" width="1674.19" height="1674.19" style="fill:none;"/><g transform="matrix(1.73287,0,0,2.85193,2129.52,1751.69)"><g><g transform="matrix(0.483414,0,0,0.955914,-3773.77,-4790.11)"><path d="M252.091,4112.22C334.939,4112.22 383.787,4060.3 383.787,3972.65L383.787,3941.86L257.471,3941.86L257.471,3977.37L345.053,3977.37L345.053,3983.21C345.053,4037.6 307.18,4074.91 252.091,4074.91C188.826,4074.91 149.446,4024.57 149.446,3942.98L149.446,3942.76C149.446,3862.75 188.18,3814.43 252.091,3814.43C295.775,3814.43 325.901,3838.02 340.319,3879.15L341.18,3881.63L381.851,3881.63L380.775,3877.36C366.357,3820.04 323.534,3777.12 252.091,3777.12C165.37,3777.12 109.851,3841.39 109.851,3942.76L109.851,3942.98C109.851,4046.37 165.37,4112.22 252.091,4112.22Z" style="fill:rgb(245,243,238);fill-rule:nonzero;"/></g><g transform="matrix(0.483414,0,0,0.955914,-3773.77,-4790.11)"><path d="M420.941,4106.83L459.675,4106.83L459.675,3978.49L533.916,3978.49L600.409,4106.83L645.814,4106.83L573.941,3972.2C612.675,3959.39 636.346,3924.55 636.346,3879.6L636.346,3879.15C636.346,3820.72 597.181,3782.51 537.359,3782.51L420.941,3782.51L420.941,4106.83ZM459.675,3942.76L459.675,3818.47L532.194,3818.47C572.004,3818.47 596.321,3841.39 596.321,3880.05L596.321,3880.5C596.321,3920.28 573.726,3942.76 533.916,3942.76L459.675,3942.76Z" style="fill:rgb(245,243,238);fill-rule:nonzero;"/></g><g transform="matrix(0.483414,0,0,0.955914,-3773.77,-4790.11)"><path d="M647.892,4106.83L688.563,4106.83L719.981,4014L845.006,4014L876.423,4106.83L917.094,4106.83L801.753,3782.51L763.449,3782.51L647.892,4106.83ZM782.17,3831.06L783.031,3831.06L833.385,3979.62L731.816,3979.62L782.17,3831.06Z" style="fill:rgb(245,243,238);fill-rule:nonzero;"/></g><g transform="matrix(0.483414,0,0,0.955914,-3773.77,-4790.11)"><path d="M1061.03,4112.22C1126.02,4112.22 1175.73,4071.99 1187.56,4009.96L1187.99,4007.71L1148.83,4007.71L1148.18,4009.73C1134.62,4052.44 1104.5,4074.91 1061.03,4074.91C999.27,4074.91 959.03,4023.44 959.03,3944.56L959.03,3944.33C959.03,3865.44 999.055,3814.43 1061.03,3814.43C1104.71,3814.43 1135.27,3837.35 1147.32,3876.68L1148.83,3881.63L1187.99,3881.63L1187.56,3879.38C1175.73,3818.02 1125.59,3777.12 1061.03,3777.12C974.524,3777.12 919.22,3842.29 919.22,3944.33L919.22,3944.56C919.22,4046.59 974.739,4112.22 1061.03,4112.22Z" style="fill:rgb(245,243,238);fill-rule:nonzero;"/></g><g transform="matrix(0.483414,0,0,0.955914,-3773.77,-4790.11)"><path d="M1221.27,4106.83L1413.65,4106.83L1413.65,4070.42L1260.01,4070.42L1260.01,3958.94L1405.69,3958.94L1405.69,3922.98L1260.01,3922.98L1260.01,3818.92L1413.65,3818.92L1413.65,3782.51L1221.27,3782.51L1221.27,4106.83Z" style="fill:rgb(245,243,238);fill-rule:nonzero;"/></g><g transform="matrix(0.483414,0,0,0.955914,-3773.77,-4790.11)"><path d="M1449.73,4106.83L1629.63,4106.83L1629.63,4090.42L1466.73,4090.42L1466.73,3782.51L1449.73,3782.51L1449.73,4106.83Z" style="fill:rgb(245,243,238);fill-rule:nonzero;"/></g><g transform="matrix(0.483414,0,0,0.955914,-3773.77,-4790.11)"><rect x="1657.74" y="3782.51" width="17" height="324.315" style="fill:rgb(245,243,238);fill-rule:nonzero;"/></g><g transform="matrix(0.483414,0,0,0.955914,-3773.77,-4790.11)"><path d="M1717.49,4106.83L1734.49,4106.83L1734.49,3950.62L1884.48,3950.62L1884.48,3934.44L1734.49,3934.44L1734.49,3798.92L1897.39,3798.92L1897.39,3782.51L1717.49,3782.51L1717.49,4106.83Z" style="fill:rgb(245,243,238);fill-rule:nonzero;"/></g><g transform="matrix(0.483414,0,0,0.955914,-3773.77,-4790.11)"><path d="M1927.44,4106.83L2108.42,4106.83L2108.42,4090.42L1944.44,4090.42L1944.44,3948.6L2100.67,3948.6L2100.67,3932.42L1944.44,3932.42L1944.44,3798.92L2108.42,3798.92L2108.42,3782.51L1927.44,3782.51L1927.44,4106.83Z" style="fill:rgb(245,243,238);fill-rule:nonzero;"/></g><g transform="matrix(0.43964,0,0,0.752448,-3726.55,-3939.35)"><path d="M218.411,4435.93C267.326,4435.93 300.975,4404.21 309.839,4358.44L310.167,4356.72L297.2,4356.72L296.872,4358.27C287.68,4396.84 260.103,4423.24 218.411,4423.24C162.602,4423.24 126.162,4377.81 126.162,4308.55L126.162,4308.21C126.162,4238.6 162.109,4194.03 218.411,4194.03C260.103,4194.03 287.844,4220.6 296.543,4258.32L297.2,4260.55L310.167,4260.55L309.839,4258.83C300.975,4213.23 267.162,4181.34 218.411,4181.34C154.066,4181.34 112.866,4230.72 112.866,4308.21L112.866,4308.55C112.866,4385.53 154.723,4435.93 218.411,4435.93Z" style="fill:rgb(245,243,238);fill-rule:nonzero;"/></g><g transform="matrix(0.43964,0,0,0.752448,-3724.34,-3939.35)"><path d="M488.448,4432.33L501.415,4432.33L501.415,4311.47L651.279,4311.47L651.279,4432.33L664.246,4432.33L664.246,4184.94L651.279,4184.94L651.279,4299.12L501.415,4299.12L501.415,4184.94L488.448,4184.94L488.448,4432.33Z" style="fill:rgb(245,243,238);fill-rule:nonzero;"/></g><g transform="matrix(0.43964,0,0,0.752448,-3727.25,-3939.35)"><path d="M942.49,4435.93C997.15,4435.93 1031.13,4400.61 1031.13,4346.44L1031.13,4184.94L1018.16,4184.94L1018.16,4345.92C1018.16,4393.07 989.436,4423.24 942.49,4423.24C896.038,4423.24 867.148,4393.07 867.148,4345.92L867.148,4184.94L854.181,4184.94L854.181,4346.44C854.181,4400.44 887.994,4435.93 942.49,4435.93Z" style="fill:rgb(245,243,238);fill-rule:nonzero;"/></g><g transform="matrix(0.43964,0,0,0.752448,-3730.17,-3939.35)"><path d="M1221.06,4432.33L1234.03,4432.33L1234.03,4326.72L1296.57,4326.72C1299.36,4326.72 1303.13,4326.55 1305.6,4326.21L1364.85,4432.33L1379.95,4432.33L1319.06,4324.15C1353.36,4316.95 1373.88,4291.41 1373.88,4255.92L1373.88,4255.58C1373.88,4212.03 1344.83,4184.94 1297.88,4184.94L1221.06,4184.94L1221.06,4432.33ZM1234.03,4314.38L1234.03,4197.29L1296.73,4197.29C1336.46,4197.29 1360.59,4219.06 1360.59,4255.75L1360.59,4256.09C1360.59,4292.44 1336.62,4314.38 1297.23,4314.38L1234.03,4314.38Z" style="fill:rgb(245,243,238);fill-rule:nonzero;"/></g><g transform="matrix(0.43964,0,0,0.752448,-3723.12,-3939.35)"><path d="M1652.78,4435.93C1701.7,4435.93 1735.35,4404.21 1744.21,4358.44L1744.54,4356.72L1731.57,4356.72L1731.24,4358.27C1722.05,4396.84 1694.48,4423.24 1652.78,4423.24C1596.97,4423.24 1560.53,4377.81 1560.53,4308.55L1560.53,4308.21C1560.53,4238.6 1596.48,4194.03 1652.78,4194.03C1694.48,4194.03 1722.22,4220.6 1730.91,4258.32L1731.57,4260.55L1744.54,4260.55L1744.21,4258.83C1735.35,4213.23 1701.53,4181.34 1652.78,4181.34C1588.44,4181.34 1547.24,4230.72 1547.24,4308.21L1547.24,4308.55C1547.24,4385.53 1589.09,4435.93 1652.78,4435.93Z" style="fill:rgb(245,243,238);fill-rule:nonzero;"/></g><g transform="matrix(0.43964,0,0,0.752448,-3720.91,-3939.35)"><path d="M1922.82,4432.33L1935.79,4432.33L1935.79,4311.47L2085.65,4311.47L2085.65,4432.33L2098.62,4432.33L2098.62,4184.94L2085.65,4184.94L2085.65,4299.12L1935.79,4299.12L1935.79,4184.94L1922.82,4184.94L1922.82,4432.33Z" style="fill:rgb(245,243,238);fill-rule:nonzero;"/></g></g></g></g></g></svg>