<?xml version="1.0" encoding="UTF-8" standalone="no"?><!DOCTYPE svg PUBLIC "-//W3C//DTD SVG 1.1//EN" "http://www.w3.org/Graphics/SVG/1.1/DTD/svg11.dtd"><svg width="1996px" height="1996px" version="1.1" xmlns="http://www.w3.org/2000/svg" xmlns:xlink="http://www.w3.org/1999/xlink" xml:space="preserve" xmlns:serif="http://www.serif.com/" style="fill-rule:evenodd;clip-rule:evenodd;stroke-linejoin:round;stroke-miterlimit:2;"><g transform="matrix(1,0,0,1,-2263.04,-1.36424e-12)"><g id="Artboard2" transform="matrix(1.19181,0,0,1.19181,7409.17,1936.84)"><rect x="-4317.93" y="-1625.13" width="1674.19" height="1674.19" style="fill:none;"/><clipPath id="_clip1"><rect x="-4317.93" y="-1625.13" width="1674.19" height="1674.19"/></clipPath><g clip-path="url(#_clip1)"><g transform="matrix(1.43394,0,0,1.43394,-3996.04,-1211.23)"><path d="M416.512,15.789L417.848,7.465L421.348,8.211C426.555,9.32 432.27,11.859 432.27,13.066C432.27,13.648 431.418,16.113 430.383,18.547C424.172,33.125 417.559,51.531 418.289,52.219C419.57,53.441 451.438,61.219 455.152,61.219C456.934,61.219 458.672,61.668 459.012,62.215C459.73,63.379 453.977,77.203 452.777,77.203C452.328,77.203 448.113,75.449 443.406,73.305C433.004,68.563 416.41,63.211 414.449,63.961C413.152,64.461 403.129,92.977 403.961,93.809C404.156,94.004 410.809,95.477 418.742,97.086C453.754,104.172 484.598,118.629 499.496,134.934C506.48,142.574 508.137,147.223 507.25,156.715C506.641,163.227 502.012,175.156 498.41,179.496C497.566,180.516 497.914,184.172 498.902,184.609C498.992,184.648 510.672,185.379 524.859,186.234C562.566,188.508 577.59,192.82 595.941,206.633C608.152,215.82 627.336,236.871 625.785,239.379C625.48,239.867 620.738,239.012 615.242,237.477C595.441,231.949 575.305,229.609 558.539,230.895L548.363,231.672L551.688,234.336C554.871,236.875 558.063,239.402 561.262,241.922C569.293,248.258 576.16,257.125 581.371,267.887C585.734,276.895 594.359,301.301 594.391,304.711C594.426,308.965 589.605,306.461 579.707,297.082C555.715,274.34 533.734,265.438 496.211,263.262C450.16,260.59 431.668,256.055 418.582,244.219C409.07,235.621 409.031,234.551 417.41,212.824C421.188,203.035 424.273,194.199 424.273,193.191C424.273,189.324 398.52,180.723 382.688,179.305L374.605,178.582L357.238,231.512C347.684,260.625 339.52,285.914 339.098,287.711C338.363,290.824 338.48,290.941 341.625,290.289C358.117,286.848 393.313,282.535 412.824,281.563C457.367,279.344 482.457,283.699 514.48,299.215C528.922,306.211 537.867,312.691 549.359,324.484C565.223,340.762 578.313,361.668 584.648,380.844C586.219,385.602 589.016,396.234 590.863,404.477C592.707,412.715 595.504,421.965 597.074,425.027C600.184,431.09 609.316,440.418 620.098,448.547C630.211,456.176 637.844,464.199 640.371,469.859C645.328,480.969 643.914,498.098 637.082,509.664C631.766,518.668 624.484,525.07 613.199,530.66C604.59,534.93 602.637,535.437 593.039,535.93C581.348,536.531 575.121,535.336 569.262,531.367C564.098,527.867 563.914,526.406 568.355,524.164C575.316,520.652 583.078,511.566 580.945,509.43C580.5,508.984 576.484,506.934 572.031,504.875C555.188,497.09 549.535,487.898 547.789,465.445C547.25,458.516 546.5,452.535 546.121,452.156C545.742,451.777 543.086,453.391 540.215,455.742C531.762,462.668 531.387,468.805 538.414,485.203C548.344,508.371 546.07,520.813 530.586,528.074C524.383,530.984 523.551,531.074 503.633,530.969C492.328,530.906 470.324,530.453 454.738,529.961L426.398,529.063L416.375,533.824L406.352,538.59L400.934,536.75C395.945,535.059 395.355,535.059 393.473,536.766C392.344,537.781 391.133,540.07 390.777,541.848C390.422,543.621 389.313,545.895 388.313,546.898C385.305,549.902 375.258,552.441 363.969,553.051C354.23,553.574 352.688,553.355 345.699,550.457C337.477,547.047 335.215,545.102 335.207,541.422C335.199,537.805 347.098,521.098 354.688,514.074C358.422,510.617 361.477,507.047 361.477,506.137C361.477,504.195 368.605,497.664 372.23,496.285C376.887,494.516 395,492.922 424.273,491.699C440.289,491.035 457.758,490.172 463.098,489.785L472.801,489.078L468.805,487.395C466.609,486.469 456.949,483.199 447.34,480.133L429.871,474.559L409.66,474.594C398.543,474.613 385.598,475.133 380.887,475.75C345.531,480.375 316.152,481.535 295.266,479.137C286.152,478.09 285.273,478.18 280.422,480.715C275.715,483.176 274.984,484.164 271.992,492.078C270.191,496.848 269.02,501.535 269.387,502.496C270.195,504.602 277.766,504.879 281.98,502.957C284.324,501.891 285.477,502.086 288.734,504.098C294.691,507.781 309.332,523.648 312.156,529.484C316.535,538.527 316.254,538.914 302.957,541.977C293.07,544.254 288.191,544.676 271.559,544.676C258.32,544.68 251.859,545.078 251.859,545.902C251.859,548.801 241.215,579.223 239.547,581.082C236.961,583.973 233.285,583.09 231.945,579.254C231.02,576.617 231.676,573.543 235.633,561.961C239.719,549.996 241.355,543.145 240.156,543.043C240,543.031 232.68,542.238 223.887,541.281C215.094,540.324 192.16,539.141 172.922,538.648L137.945,537.758L131.5,534.602C126.109,531.965 124.559,530.484 122.012,525.555C120.34,522.313 118.684,517.348 118.332,514.52L117.695,509.383L110.848,507.879C95.449,504.5 88.684,501.809 84.98,497.59C77.504,489.074 74.75,478.629 77.805,470.332C81.852,459.34 89.883,450.867 102.441,444.352C113.426,438.652 129.688,428.918 129.688,428.043C129.688,427.664 126.887,420.633 123.469,412.418C113.93,389.508 111.387,375.57 110.625,342.105C109.852,307.918 111.668,295.473 121.852,265.328C125.613,254.188 128.371,244.555 127.98,243.918C127.586,243.285 123.828,242.75 119.629,242.727C108.559,242.672 96.082,240.156 85.078,235.762C71.883,230.5 71.934,228.961 85.602,219.102C91.184,215.074 96.363,211.176 97.109,210.434C111.07,196.582 134.922,174.77 141.52,169.824C146.27,166.27 152.328,160.359 155.129,156.563C162.043,147.18 173.688,136.324 180.578,132.832C201.398,122.281 227.883,123.156 251.035,135.164C261.223,140.449 271.922,150.523 288.863,170.785C320.77,208.957 324.215,214.52 324.176,227.828C324.145,238.73 321.234,245.477 313.023,253.691C301.703,265.012 291.508,267.008 276.25,260.902C267.453,257.379 259.645,256.363 254.43,258.066C252.289,258.766 251.859,259.734 251.859,263.867C251.859,270.164 255.645,280.121 260.086,285.508C264,290.254 282.094,298.199 287.035,298.215C293.48,298.234 323.859,293.781 325.344,292.559C327.297,290.957 404.152,61.699 403.238,60.215C402.594,59.18 377.453,52.957 367.945,51.48C364.41,50.934 363.719,50.434 364.355,48.875C364.789,47.813 365.934,44.633 366.898,41.809C367.867,38.98 368.805,36.492 368.988,36.27C369.168,36.047 374.363,37.926 380.527,40.438C393.477,45.715 405.719,49.324 406.848,48.195C408.43,46.613 415.219,23.852 416.512,15.789ZM175.234,222.059C168.688,227.813 156.707,235.098 150.238,237.25C145.176,238.938 145.027,239.137 139.734,251.152C125.066,284.449 120.461,320.566 127.527,346.855C129.371,353.703 130.996,356.906 135.02,361.621C140.852,368.457 146.039,378.281 144.359,379.32C142.84,380.258 134.652,374.422 131.73,370.32C130.418,368.473 127.84,364.324 126.008,361.098L122.672,355.238L123.379,364.152C124.789,381.969 133.68,409.457 142.316,422.715C147.719,431.004 170.027,452.039 172.832,451.488C176.824,450.699 176.949,447.645 173.199,442.195C165.285,430.691 163.965,426.242 163.953,411.031C163.938,390.805 168.398,379.09 182.164,363.25C189.512,354.793 192.668,352.563 187.988,359.137C186.633,361.039 182.855,368.133 179.59,374.902L173.656,387.207L173.262,402.676C172.879,417.668 172.973,418.418 176.379,427.223C179.098,434.266 181.316,437.781 186.258,442.871C189.766,446.484 193.41,449.438 194.367,449.438C198.078,449.438 194.617,452.625 181,461.742C173.211,466.961 165.801,472.184 164.531,473.348C163.266,474.516 157.719,478.117 152.203,481.355C139.199,488.996 134.492,493.234 131.23,500.242C126.164,511.121 128.816,520.688 138.168,525.266C142.113,527.199 146.617,527.551 177.547,528.352C196.754,528.848 217.605,529.777 223.887,530.422C230.164,531.063 237.621,531.602 240.457,531.617L245.609,531.648L248.246,522.977C249.695,518.207 250.715,514.156 250.516,513.977C250.313,513.801 240.898,513.055 229.594,512.328C218.289,511.598 205.445,510.445 201.051,509.77C196.145,509.016 187.258,508.848 178.047,509.332C169.25,509.797 162.77,509.691 162.395,509.078C161.691,507.945 165.84,504.539 171.484,501.621C178.723,497.879 206.273,489.543 225.027,485.418C240.578,482 246.082,480.277 255.746,475.816L265.078,471.504L269.77,457.332C272.348,449.535 276.125,438.531 278.164,432.883L281.875,422.605C281.875,422.605 288.488,403.711 288.914,402.594C289.27,401.668 294.914,385.238 301.457,366.086C306.824,350.371 312.207,334.664 317.605,318.965C319.941,312.203 321.609,306.426 321.309,306.125C321.008,305.828 297.46,309.03 284.664,309.03C270.536,309.03 252.051,294.148 250.645,294.148C250.234,294.148 249.602,296.633 249.242,299.672C248.25,308.027 244.652,317.133 239.73,323.746C236.309,328.34 233.445,330.609 227.121,333.742C217.727,338.391 213.914,338.391 220.945,333.734C232.012,326.41 239.496,315.66 240.945,304.996C241.602,300.156 239.941,279.566 238.801,278.426C238.594,278.219 235.473,281.148 231.863,284.934C227.082,289.945 223.598,292.449 219.02,294.164C215.566,295.457 212.52,296.297 212.25,296.027C211.984,295.762 213.465,294.336 215.543,292.863C222.086,288.227 223.398,286.902 228.539,279.758C233.91,272.293 238.094,264.004 238.133,260.742C238.152,259.129 236.84,259.637 231.402,263.348C227.688,265.883 221.133,269.164 216.844,270.633C212.555,272.105 203.68,275.676 197.129,278.57C190.578,281.469 184.965,283.586 184.66,283.277C184.355,282.973 185.348,281.391 186.867,279.758C190.027,276.367 198.16,272.063 211.309,266.813C220.965,262.961 227.883,259.148 227.883,257.684C227.883,257.199 224.438,256.48 220.23,256.086C202.594,254.438 188.098,241.438 183.113,222.793C182.355,219.965 181.402,217.648 180.992,217.648C180.582,217.648 177.992,219.633 175.234,222.059ZM201.379,136.535C192.055,138.238 179.707,145.02 171.773,152.797L164.512,159.914L172.504,161.215C182.633,162.863 191.914,166.391 191.914,168.586C191.914,170.391 191.516,170.406 177.961,169.059C167.105,167.984 156.969,171.133 145.156,179.254C135.383,185.977 104.77,214.48 106.652,215.109C108.75,215.809 125.273,212.305 132.238,209.684C138.848,207.199 147.305,201.703 158.199,192.813C163.797,188.246 167.367,186.734 167.367,188.934C167.367,190.594 156.359,204.539 152.457,207.82C142.207,216.445 123.98,222.211 106.922,222.223C98.168,222.23 95.359,222.656 92.754,224.371C90.965,225.551 89.953,226.793 90.504,227.129C94.41,229.547 111.355,232.492 121.34,232.492C131.117,232.492 133.766,232.039 141.535,229.051C158.848,222.383 166.988,215.145 180.555,194.359C190.336,179.371 191.887,178.449 190.863,188.23C190.449,192.164 190.063,200.621 189.996,207.027C189.887,217.566 190.176,219.281 193.039,225.137C197.453,234.16 202.145,239.086 209.543,242.457C215.328,245.098 217.922,245.445 238.73,246.371C263.406,247.469 268.215,248.141 278.691,251.957C287.426,255.137 294.547,255.246 300.246,252.289L304.672,249.992L298.191,248.691C294.629,247.977 289.926,246.543 287.742,245.504C283.926,243.695 279.266,238.965 279.266,236.906C279.266,235.027 284.051,235.93 291.633,239.242C295.82,241.074 301.625,242.922 304.527,243.348C309.227,244.039 310.02,243.832 311.664,241.48C313.879,238.324 314.063,235.918 312.09,235.918C309.277,235.914 296.906,229.305 294.18,226.348C292.047,224.031 291.711,223.016 292.742,221.984C293.773,220.953 296.367,221.813 303.867,225.668C311.988,229.844 313.824,230.418 314.68,229.035C317.426,224.594 311.875,214.816 295.137,194.594C287.57,185.453 280,176.313 272.43,167.172C263.008,155.801 253.434,147.141 246.23,143.477C234.25,137.383 213.949,134.242 201.379,136.535ZM218.746,176.988C223.457,176.293 231.473,175.648 236.563,175.563C244.465,175.426 246.379,175.781 249.691,178.012C251.879,179.48 254.105,182.25 254.793,184.355C256.066,188.254 255.664,194.813 254.148,194.813C253.664,194.813 251.215,192.758 248.703,190.246C242.953,184.496 240.348,184.199 241.191,189.402C241.648,192.223 241.223,193.641 239.441,195.254C234.184,200.016 226.191,196.242 226.992,189.375L227.434,185.605L222.648,186.324C219.113,186.852 216.484,186.43 212.598,184.711C204.047,180.93 205.641,178.93 218.746,176.988ZM256.426,488.184C253.711,489.77 233.582,495.02 223.266,496.832C218.086,497.742 213.617,498.719 213.336,499C211.789,500.547 223.664,502.359 238.203,502.801L254.805,503.301L256.906,496.637C258.059,492.973 259.25,489.332 259.551,488.543C260.184,486.898 258.891,486.75 256.426,488.184ZM403.152,293.73L367.754,298.844C350.172,301.383 335.133,304.094 334.332,304.867C332.695,306.449 326.348,324.613 304.414,390.477L289.258,435.996C289.258,435.996 284.664,445.629 285.559,459.801C285.939,465.824 296.676,470.302 324.781,470.84C342.227,471.174 350.715,470.934 351.559,470.086C352.449,469.195 352.313,468.848 351.082,468.848C347.07,468.848 330.195,459.418 324.402,453.937C317.18,447.105 313.848,440.637 312.504,430.852C311.008,419.941 312.262,419.691 317.402,429.879C324.16,443.258 332.246,451.918 343.047,457.352C352.172,461.938 371.367,468.473 372.469,467.367C372.82,467.02 371.387,465.852 369.289,464.773C361.238,460.641 350.836,452.285 345.449,445.629C334.77,432.434 330.535,416.031 332.918,397.109C334.766,382.43 336.188,379.207 336.281,389.492C336.441,407.027 342.508,426.457 351.734,438.988C358,447.504 362.707,451.301 375.07,457.82C384.258,462.664 385.859,463.137 393.012,463.129L400.867,463.117C400.867,463.117 388.223,428.168 386.023,421.383C382.527,410.598 382.027,407.602 382.027,397.457C382.027,377.879 388.902,357.688 399.926,344.891C411.961,330.922 434.359,320.918 448.328,323.277C450.883,323.711 452.797,324.242 452.578,324.461C452.363,324.676 448.25,325.668 443.445,326.66C431.656,329.094 426.047,331.77 418.383,338.613C412.484,343.887 403.137,356.473 400.953,362.09C392.41,384.059 392.359,409.184 400.82,428.316C409.957,448.973 428.809,463.504 455.676,470.602C474.824,475.664 486.633,482.223 492.215,490.898C496.039,496.844 494.25,497.355 461.234,499.793C444.988,500.992 422.449,502.461 411.145,503.059C386.16,504.379 379.25,505.707 374.945,510.012C371.137,513.816 370.664,517.945 374.035,517.945C375.289,517.945 376.32,518.359 376.32,518.867C376.32,519.371 378.059,521.684 380.184,524.004C385.129,529.402 388.176,529.418 392.797,524.074C397.02,519.188 400.383,519.449 403.195,524.879C404.145,526.719 405.32,528.223 405.813,528.223C406.301,528.223 408.781,526.691 411.324,524.82C419.02,519.16 424.309,518.637 462.527,519.762C511.883,521.215 520.035,521.086 524.367,518.777C534.09,513.59 534.902,506.508 527.262,493.559C521.797,484.297 519.789,476.945 519.691,465.824L519.617,457.664L530.633,446.309C542.215,434.371 545.059,429.949 549.461,417.004C551.605,410.699 552.16,406.672 552.16,397.352C552.16,390.906 552.652,385.324 553.258,384.953C553.859,384.578 555.48,386.477 556.852,389.168C559.02,393.41 559.367,396.027 559.465,408.902C559.527,417.066 559.125,434.078 558.563,446.707C557.605,468.395 557.68,470.109 559.945,477.566C561.453,482.523 563.531,486.598 565.527,488.512C568.918,491.758 575.871,495.105 579.238,495.117C583.832,495.129 589.719,497.609 591.457,500.266C593.16,502.863 593.164,503.59 591.5,509.094C590.5,512.395 588.691,517.289 587.477,519.977C586.266,522.66 585.27,525.102 585.27,525.398C585.27,526.781 594.328,525.664 598.508,523.766C602.102,522.133 603.621,520.547 605.074,516.918C607.281,511.402 607.523,499.086 605.5,495.539C604.031,492.969 599.398,488.937 594.027,485.555C579.746,476.559 575.176,466.523 578.355,451.148C579.285,446.652 579.301,446.641 579.43,450.332C579.742,459.148 586.066,467.41 602.09,479.93C615.59,490.477 616.672,492.305 616.668,504.531C616.664,510.027 617.047,514.52 617.512,514.52C619.367,514.52 626.422,503.332 628.063,497.789C629.02,494.551 629.801,488.246 629.801,483.777C629.801,473.102 627.492,469.488 613.441,458.188C593.332,442.012 587.973,433.254 579.051,401.949C571.668,376.039 567.195,365.871 555.453,348.277C539.395,324.227 511.352,305.559 477.371,296.309C469.207,294.086 464.949,293.793 437.406,293.527C420.449,293.367 405.035,293.457 403.152,293.73ZM117.695,448.844C87.613,467.465 81.691,476.965 92.926,488.578C97.84,493.656 105.316,496.25 115.02,496.25C121.285,496.25 121.73,496.063 123.496,492.652C124.52,490.668 128.371,486.047 132.055,482.375L138.75,475.699L126.129,475.699C116.543,475.699 113.621,475.355 113.98,474.273C114.727,472 123.078,467.746 126.832,467.727C132.203,467.695 158.195,463.238 160.645,461.926C163.676,460.305 162.176,458.367 150.785,449.168C145.773,445.117 140.969,440.953 140.109,439.914C139.246,438.871 137.703,438.066 136.684,438.129C135.66,438.188 127.117,443.012 117.695,448.844ZM285.547,515.852C286.934,520.527 291.797,527.098 295.582,529.406C299.855,532.012 300.965,532.18 300.941,530.223C300.922,528.391 290.039,516.008 287.035,514.402C284.992,513.309 284.84,513.461 285.547,515.852ZM357.078,524.258C350.008,531.992 346.113,537.355 347.563,537.355C348.883,537.355 362.039,523.445 363.758,520.23C366.023,516 362.91,517.875 357.078,524.258ZM471.116,210.434C474.83,213.491 498.492,157.115 498.492,154.133C498.492,146.805 479.082,121.294 402.934,106.281C401.557,106.01 400.16,106.188 399.824,106.734C398.547,108.801 382.027,153.924 382.027,155.487C379.564,162.853 378.602,166.117 378.602,166.969C378.602,167.797 426.559,179.254 454.246,196.371C460.29,200.108 468.634,208.39 471.116,210.434ZM490.887,195.098C490.395,195.883 487.762,201.918 485.035,208.516C482.828,213.859 480.605,219.195 478.367,224.527C474.156,234.422 462.852,236.957 444.828,232.051C438.863,230.43 431.41,228.965 428.27,228.797C423.262,228.531 422.52,228.785 422.227,230.848C420.57,242.434 455.441,252.977 495.637,253.043C521.488,253.082 547.445,260.957 569,275.297C572.297,277.492 574.996,278.715 574.996,278.016C574.996,275.5 564.801,262.59 556.566,254.676C547.551,246.012 538.219,239.277 528.227,234.223L521.996,231.07C521.996,231.07 527.262,221.109 571,221.141C581.344,221.148 595.625,222.582 599.285,223.988C603.875,225.75 600.668,222.094 592.98,216.805C571.648,202.129 554.332,197.121 517.094,194.863C492.426,193.367 491.965,193.371 490.887,195.098ZM259.953,521.895C255.984,534.172 255.711,533.934 273.719,533.934L286.258,533.934L282.516,528.508C275.348,518.117 271.25,514.52 266.57,514.52C262.367,514.52 262.316,514.578 259.953,521.895ZM432.742,200.707C431.258,203.574 426.559,216.043 426.559,217.105C426.559,217.242 429.582,217.945 433.277,218.672C436.973,219.398 444.18,221.523 449.297,223.387C454.41,225.254 460.121,226.781 461.988,226.781C465.078,226.781 465.379,226.441 465.379,222.93C465.379,219.863 464.395,218.172 460.527,214.613C452.281,207.02 437.938,197.094 435.207,197.094C434.879,197.094 433.77,198.719 432.742,200.707ZM364.004,535.395C360.73,538.711 358.051,541.855 358.051,542.379C358.051,543.801 372.977,541.938 376.605,540.062C378.332,539.172 379.742,538.203 379.742,537.914C379.742,537.223 371.359,529.434 370.57,529.395C370.234,529.379 367.281,532.078 364.004,535.395ZM199.336,70.023C189.512,71.117 169.395,76.699 160.641,80.758C141.047,89.84 126.113,101.777 114.23,117.844C100.895,135.879 95.871,151.527 94.301,179.934C93.766,189.652 93.574,198 93.875,198.488C95.023,200.348 101.941,186.809 103.352,171.406C105.121,152.074 111.977,135.125 124.141,120.004C133.418,108.473 144.793,99.188 158.23,92.191C188.027,76.672 219.32,74.176 250.719,84.809C282.293,95.504 308.055,121.648 319.348,154.445C322.449,163.449 322.977,166.988 324.168,186.82C325.273,205.199 325.805,209.086 327.211,209.086C329.509,209.086 333.117,197.996 332.582,181.715C331.855,159.516 328.523,146.801 318.957,129.727C310.488,114.609 301.609,104.586 286.141,92.684C262.949,74.84 230.98,66.496 199.336,70.023" style="fill:rgb(245,243,238);"/></g><g transform="matrix(1.14804,0,0,1.14804,-4441.85,-1749.05)"><path d="M837.093,309.518C1128.27,309.518 1364.67,545.916 1364.67,837.093C1364.67,1128.27 1128.27,1364.67 837.093,1364.67C545.916,1364.67 309.518,1128.27 309.518,837.093C309.518,545.916 545.916,309.518 837.093,309.518ZM837.093,317.131C550.118,317.131 317.131,550.118 317.131,837.093C317.131,1124.07 550.118,1357.06 837.093,1357.06C1124.07,1357.06 1357.06,1124.07 1357.06,837.093C1357.06,550.118 1124.07,317.131 837.093,317.131Z" style="fill:rgb(245,243,238);"/></g><g transform="matrix(1.10352,0,0,1.10352,-4404.58,-1711.79)"><path d="M837.093,309.518C1128.27,309.518 1364.67,545.916 1364.67,837.093C1364.67,1128.27 1128.27,1364.67 837.093,1364.67C545.916,1364.67 309.518,1128.27 309.518,837.093C309.518,545.916 545.916,309.518 837.093,309.518ZM837.093,317.438C550.288,317.438 317.438,550.288 317.438,837.093C317.438,1123.9 550.288,1356.75 837.093,1356.75C1123.9,1356.75 1356.75,1123.9 1356.75,837.093C1356.75,550.288 1123.9,317.438 837.093,317.438Z" style="fill:rgb(245,243,238);"/></g><g transform="matrix(1.58668,0,0,1.58668,-4809.03,-2116.24)"><path d="M837.093,309.518C1128.27,309.518 1364.67,545.916 1364.67,837.093C1364.67,1128.27 1128.27,1364.67 837.093,1364.67C545.916,1364.67 309.518,1128.27 309.518,837.093C309.518,545.916 545.916,309.518 837.093,309.518ZM837.093,315.026C548.957,315.026 315.026,548.957 315.026,837.093C315.026,1125.23 548.957,1359.16 837.093,1359.16C1125.23,1359.16 1359.16,1125.23 1359.16,837.093C1359.16,548.957 1125.23,315.026 837.093,315.026Z" style="fill:rgb(245,243,238);"/></g><g transform="matrix(17.0442,0,0,17.0442,-4247.82,-1555.03)"><path d="M89.412,45C89.83,44.118 90.072,43.131 89.98,42.035C89.91,40.946 89.6,40 89.031,39.187C89.381,38.253 89.411,37.262 89.22,36.187C88.995,35.127 88.574,34.231 87.918,33.5C88.104,32.544 88.065,31.546 87.699,30.524C87.365,29.475 86.773,28.65 86.034,28C86.107,27.013 85.916,26.022 85.428,25.037C84.939,24.061 84.292,23.304 83.453,22.772C83.417,21.776 83.064,20.85 82.477,19.93C81.854,19.044 81.137,18.368 80.24,17.954C80.055,16.993 79.623,16.098 78.9,15.29C78.196,14.444 77.321,13.923 76.401,13.594C76.073,12.674 75.551,11.8 74.706,11.096C73.893,10.369 72.989,9.937 72.021,9.752C71.605,8.851 70.928,8.124 70.033,7.5C69.12,6.916 68.2,6.566 67.211,6.526C66.681,5.695 65.927,5.055 64.957,4.569C63.973,4.082 62.983,3.89 61.997,3.963C61.346,3.225 60.521,2.634 59.474,2.3C58.444,1.932 57.438,1.895 56.478,2.084C55.743,1.424 54.843,0.995 53.773,0.773C52.707,0.582 51.722,0.613 50.794,0.958C49.984,0.395 49.044,0.089 47.962,0.019C46.867,-0.072 45.882,0.17 45,0.587L45,0.588C44.118,0.17 43.131,-0.072 42.035,0.02C40.946,0.089 40,0.4 39.187,0.969C38.253,0.619 37.262,0.588 36.187,0.78C35.127,1.004 34.231,1.426 33.5,2.082C32.544,1.897 31.546,1.935 30.524,2.301C29.475,2.635 28.65,3.227 28,3.966C27.013,3.893 26.022,4.084 25.037,4.572C24.061,5.061 23.304,5.708 22.772,6.546C21.776,6.583 20.85,6.936 19.93,7.523C19.044,8.146 18.368,8.863 17.954,9.76C16.993,9.945 16.098,10.377 15.29,11.1C14.444,11.804 13.923,12.679 13.594,13.598C12.674,13.927 11.8,14.449 11.096,15.294C10.369,16.108 9.937,17.011 9.752,17.979C8.851,18.395 8.124,19.072 7.5,19.967C6.916,20.879 6.566,21.8 6.526,22.789C5.695,23.32 5.055,24.074 4.569,25.042C4.082,26.027 3.89,27.017 3.963,28.003C3.225,28.654 2.634,29.478 2.3,30.527C1.932,31.556 1.895,32.562 2.084,33.522C1.424,34.256 0.995,35.158 0.773,36.226C0.582,37.293 0.613,38.279 0.958,39.206C0.395,40.016 0.089,40.957 0.019,42.038C-0.072,43.132 0.17,44.118 0.587,45L0.588,45C0.17,45.882 -0.072,46.868 0.02,47.965C0.089,49.054 0.4,50 0.969,50.813C0.619,51.747 0.588,52.738 0.78,53.813C1.004,54.873 1.426,55.77 2.082,56.5C1.897,57.455 1.935,58.454 2.301,59.477C2.635,60.525 3.227,61.35 3.966,62C3.893,62.986 4.084,63.978 4.572,64.963C5.061,65.939 5.708,66.696 6.546,67.228C6.583,68.224 6.936,69.15 7.523,70.069C8.146,70.955 8.863,71.632 9.76,72.046C9.945,73.007 10.377,73.902 11.1,74.711C11.804,75.556 12.679,76.077 13.598,76.406C13.927,77.325 14.449,78.2 15.294,78.904C16.108,79.632 17.011,80.063 17.979,80.248C18.395,81.149 19.072,81.876 19.967,82.5C20.879,83.084 21.8,83.434 22.789,83.474C23.32,84.305 24.074,84.944 25.042,85.432C26.027,85.918 27.017,86.109 28.003,86.037C28.654,86.775 29.478,87.366 30.527,87.7C31.556,88.068 32.562,88.104 33.522,87.915C34.256,88.576 35.158,89.005 36.226,89.228C37.293,89.419 38.279,89.387 39.206,89.042C40.016,89.605 40.957,89.91 42.038,89.98C43.132,90.072 44.118,89.83 45,89.413L45,89.411C45.882,89.83 46.868,90.072 47.965,89.98C49.054,89.91 50,89.6 50.813,89.031C51.747,89.381 52.738,89.411 53.813,89.22C54.873,88.995 55.77,88.574 56.5,87.918C57.455,88.104 58.454,88.065 59.477,87.699C60.525,87.365 61.35,86.773 62,86.034C62.986,86.107 63.978,85.916 64.963,85.428C65.939,84.939 66.696,84.292 67.228,83.453C68.224,83.417 69.15,83.064 70.069,82.477C70.955,81.854 71.632,81.137 72.046,80.24C73.007,80.055 73.902,79.623 74.711,78.9C75.556,78.196 76.077,77.321 76.406,76.401C77.325,76.073 78.2,75.551 78.904,74.706C79.632,73.893 80.063,72.989 80.248,72.021C81.149,71.605 81.876,70.928 82.5,70.033C83.085,69.12 83.434,68.2 83.474,67.211C84.306,66.681 84.944,65.927 85.432,64.957C85.918,63.973 86.109,62.983 86.037,61.997C86.775,61.346 87.366,60.521 87.7,59.474C88.068,58.444 88.104,57.438 87.915,56.478C88.576,55.743 89.005,54.843 89.228,53.773C89.418,52.707 89.387,51.722 89.042,50.794C89.605,49.984 89.91,49.044 89.98,47.962C90.072,46.867 89.83,45.882 89.412,45ZM89.493,42.067C89.578,42.946 89.392,43.747 89.094,44.471C88.668,43.842 88.172,43.361 87.745,42.998C87.805,42.74 87.803,42.471 87.784,42.178C87.758,41.826 87.69,41.511 87.579,41.218L87.578,41.215C87.305,40.454 86.679,39.939 85.848,39.389L85.847,39.388C85.673,39.275 85.49,39.161 85.351,39.076C85.214,38.993 85.064,38.899 84.904,38.804C85.021,38.296 85.328,37.83 85.795,37.235L86.111,37.417L86.748,37.794C87.318,38.139 88.026,38.649 88.564,39.405C89.129,40.157 89.423,41.041 89.493,42.067ZM86.757,47.117L86.278,47.476C85.459,48.086 84.914,48.583 84.608,49.284C84.483,49.555 84.403,49.844 84.361,50.169C84.328,50.437 84.327,50.687 84.355,50.929C83.894,51.222 83.327,51.586 82.829,52.057C82.618,51.377 82.585,50.695 82.664,49.948C82.791,49.081 83.064,48.341 83.562,47.652C84.078,46.969 84.691,46.429 85.197,46.024L85.77,45.571C85.769,45.571 85.929,45.444 86.056,45.34C86.607,45.838 86.98,46.273 87.172,46.788C87.026,46.907 86.883,47.02 86.757,47.117ZM87.301,47.361L87.297,47.787L87.246,48.148L86.994,47.899L86.813,47.724L87.019,47.571L87.301,47.361ZM86.112,52.58C86.111,52.581 85.625,52.86 85.622,52.861L85.621,52.861C84.765,53.369 84.098,53.774 83.718,54.422C83.562,54.682 83.452,54.968 83.354,55.293C83.285,55.531 83.247,55.761 83.237,55.988C82.731,56.217 82.159,56.52 81.577,56.921C81.491,56.241 81.488,55.555 81.7,54.85C81.931,54 82.3,53.298 82.906,52.684C83.47,52.071 84.18,51.624 84.737,51.291C84.962,51.16 85.169,51.031 85.351,50.921C85.482,50.841 85.594,50.771 85.7,50.703C86.189,51.258 86.492,51.75 86.595,52.297C86.425,52.399 86.259,52.496 86.112,52.58ZM86.63,52.891L86.588,53.253C86.563,53.39 86.536,53.519 86.488,53.638L86.271,53.359L86.127,53.18L86.323,53.066L86.63,52.891ZM84.789,57.852C84.614,57.921 84.409,58.003 84.214,58.083L84.213,58.083C83.277,58.465 82.627,58.806 82.134,59.409C81.955,59.635 81.812,59.887 81.696,60.18C81.606,60.423 81.531,60.651 81.487,60.882C80.956,61.041 80.328,61.255 79.728,61.585C79.687,60.873 79.835,60.213 80.115,59.524C80.431,58.715 80.928,58.092 81.559,57.552C82.217,57.014 82.992,56.664 83.567,56.399L83.567,56.398L84.241,56.104L84.598,55.945C85.002,56.567 85.256,57.089 85.3,57.64L84.789,57.852ZM85.255,58.227L85.152,58.61L84.989,59.005L84.811,58.703L84.667,58.463L84.928,58.359L85.255,58.227ZM77.166,68.515L77.165,68.515C76.925,68.697 76.702,68.912 76.489,69.177C76.335,69.373 76.214,69.57 76.117,69.776C75.571,69.801 74.911,69.85 74.224,70.001C74.4,69.336 74.677,68.712 75.133,68.134C75.684,67.444 76.279,66.926 77.084,66.597C77.839,66.248 78.666,66.108 79.308,66.015C79.539,65.983 79.758,65.95 80.017,65.909C80.17,65.886 80.303,65.863 80.424,65.842C80.662,66.542 80.75,67.112 80.636,67.657L80.082,67.733L79.522,67.805L79.521,67.805C78.529,67.939 77.765,68.063 77.166,68.515ZM77.283,69.746L77.031,69.753L76.682,69.761L76.877,69.476L77.15,69.174L77.228,69.504L77.283,69.746ZM73.428,74.23L73.792,74.27C73.831,75.012 73.787,75.584 73.56,76.084C73.373,76.064 73.194,76.045 73.031,76.02L72.438,75.934L72.438,75.934C71.426,75.784 70.702,75.766 69.977,76.029L69.975,76.031C69.697,76.136 69.438,76.283 69.182,76.486C68.967,76.651 68.796,76.837 68.636,77.018C68.097,76.889 67.446,76.758 66.763,76.74C67.083,76.094 67.556,75.606 68.138,75.129C68.833,74.596 69.564,74.283 70.395,74.14C71.24,74.017 72.065,74.079 72.703,74.146L73.428,74.23ZM73.184,73.688L73.437,73.409L73.69,73.176L73.731,73.525C73.731,73.525 73.742,73.632 73.755,73.751L73.53,73.728L73.184,73.688ZM73.241,76.576L72.938,76.878L72.647,77.099L72.645,76.743L72.641,76.488L72.896,76.526L73.241,76.576ZM68.712,79.432L68.169,79.286C67.185,79.009 66.446,78.856 65.72,79.044C65.423,79.113 65.132,79.221 64.837,79.393C64.621,79.516 64.435,79.654 64.268,79.81C63.758,79.631 63.115,79.397 62.43,79.29C62.843,78.733 63.349,78.288 63.98,77.91C64.755,77.487 65.504,77.235 66.368,77.23C67.214,77.216 68.016,77.379 68.646,77.54L68.646,77.54C68.89,77.601 69.127,77.663 69.348,77.72C69.466,77.752 69.604,77.781 69.75,77.814C69.698,78.545 69.561,79.103 69.251,79.569L68.712,79.432ZM68.859,80.019L68.572,80.242L68.225,80.435L68.27,80.087L68.298,79.864L68.52,79.928L68.859,80.019ZM64.046,82.217C63.82,82.122 63.639,82.045 63.475,81.978C62.553,81.607 61.83,81.343 61.066,81.447C60.781,81.481 60.51,81.574 60.213,81.684C59.972,81.778 59.76,81.893 59.567,82.028C59.078,81.763 58.494,81.501 57.825,81.28C58.313,80.788 58.861,80.365 59.557,80.103C60.355,79.762 61.137,79.646 61.975,79.731C62.814,79.804 63.609,80.1 64.213,80.337L64.214,80.337L64.896,80.6L65.26,80.736C65.112,81.473 64.922,82.019 64.554,82.424C64.372,82.353 64.197,82.281 64.046,82.217ZM64.111,82.814L63.771,83.018L63.376,83.187L63.462,82.846L63.529,82.569L63.787,82.679L64.111,82.814ZM58.514,84.087C57.639,83.569 56.976,83.267 56.204,83.231L56.202,83.232C55.906,83.224 55.61,83.263 55.296,83.353C55.036,83.431 54.803,83.521 54.586,83.628C54.139,83.304 53.589,82.935 52.966,82.658C53.51,82.185 54.131,81.904 54.854,81.699C55.695,81.46 56.495,81.47 57.314,81.648C58.139,81.85 58.884,82.245 59.443,82.541L60.08,82.893C60.079,82.893 60.257,82.989 60.401,83.066C60.154,83.77 59.896,84.286 59.495,84.662C59.328,84.567 59.168,84.475 59.028,84.392L58.514,84.087ZM59.01,84.987L58.612,85.151L58.261,85.246L58.395,84.915L58.488,84.679L58.709,84.81L59.01,84.987ZM53.285,85.547C52.482,84.91 51.861,84.488 51.119,84.382L51.118,84.382C50.817,84.329 50.507,84.317 50.168,84.362C49.922,84.393 49.696,84.448 49.482,84.527C49.08,84.166 48.577,83.709 47.985,83.342C48.581,82.991 49.219,82.769 49.948,82.664C50.826,82.572 51.613,82.629 52.413,82.955C53.2,83.274 53.876,83.725 54.396,84.116L54.974,84.55C55.07,84.622 55.189,84.714 55.312,84.799C54.979,85.439 54.642,85.913 54.177,86.224L53.73,85.891C53.729,85.89 53.285,85.553 53.285,85.547ZM53.642,86.49L53.29,86.582L52.896,86.626L53.07,86.323L53.182,86.128L53.36,86.271L53.642,86.49ZM47.916,86.224L47.915,86.223C47.207,85.523 46.642,85.018 45.896,84.809L45.895,84.809C45.618,84.732 45.332,84.699 45.016,84.708L45,84.709C44.746,84.703 44.511,84.725 44.286,84.773C43.935,84.345 43.496,83.854 42.96,83.424C43.598,83.124 44.262,82.978 45,82.997L45.016,82.996C45.885,82.962 46.653,83.19 47.395,83.573C48.143,83.962 48.762,84.548 49.229,84.992L49.229,84.993L49.758,85.498C49.866,85.602 49.957,85.687 50.042,85.767C49.621,86.385 49.237,86.822 48.741,87.052L48.352,86.665C48.229,86.54 48.069,86.377 47.916,86.224ZM48.183,87.241L47.79,87.297L47.36,87.3L47.569,87.02L47.738,86.79L47.936,86.991L48.183,87.241ZM42.525,86.278C41.914,85.459 41.417,84.914 40.716,84.608C40.445,84.483 40.157,84.403 39.831,84.362C39.563,84.328 39.313,84.327 39.071,84.356C38.779,83.894 38.414,83.327 37.943,82.829C38.624,82.618 39.305,82.585 40.052,82.664C40.919,82.791 41.66,83.064 42.348,83.562C43.031,84.078 43.572,84.691 43.976,85.197L44.429,85.77C44.429,85.769 44.556,85.929 44.66,86.056C44.162,86.607 43.726,86.98 43.212,87.172C43.093,87.026 42.98,86.883 42.883,86.757L42.525,86.278ZM42.639,87.301L42.212,87.297L41.851,87.246L42.1,86.994L42.277,86.813L42.429,87.019L42.639,87.301ZM40.138,84.919L39.889,85.158L39.688,85.348L39.542,85.114L39.364,84.824L39.768,84.847L40.138,84.919ZM35.578,83.718C35.319,83.562 35.032,83.452 34.708,83.354C34.468,83.285 34.24,83.247 34.012,83.237C33.783,82.731 33.48,82.159 33.079,81.577C33.759,81.491 34.445,81.488 35.15,81.7C36,81.931 36.702,82.3 37.316,82.906C37.929,83.47 38.375,84.18 38.708,84.737C38.84,84.962 38.968,85.169 39.079,85.351C39.159,85.482 39.23,85.594 39.297,85.7C38.742,86.189 38.25,86.492 37.704,86.595C37.601,86.425 37.503,86.259 37.42,86.112C37.419,86.111 37.14,85.625 37.139,85.622L37.139,85.621C36.631,84.765 36.225,84.098 35.578,83.718ZM37.11,86.63L36.747,86.588C36.61,86.563 36.482,86.536 36.363,86.488L36.64,86.271L36.821,86.127L36.933,86.323L37.11,86.63ZM34.962,83.963L34.688,84.161L34.486,84.305L34.384,84.074L34.243,83.753L34.581,83.825L34.962,83.963ZM30.591,82.134C30.365,81.955 30.114,81.813 29.82,81.696C29.577,81.606 29.349,81.531 29.118,81.487C28.958,80.956 28.746,80.328 28.415,79.728C29.126,79.688 29.787,79.835 30.476,80.115C31.285,80.431 31.909,80.928 32.448,81.559C32.986,82.217 33.336,82.992 33.601,83.567L33.602,83.567L33.896,84.241L34.055,84.598C33.432,85.002 32.912,85.256 32.36,85.3L32.149,84.789C32.079,84.614 31.997,84.409 31.917,84.214L31.917,84.213C31.536,83.276 31.194,82.627 30.591,82.134ZM31.773,85.255L31.39,85.152L30.995,84.989L31.296,84.811L31.538,84.667L31.641,84.928L31.773,85.255ZM29.946,82.297L29.639,82.466C29.639,82.466 29.545,82.517 29.439,82.573C29.404,82.461 29.373,82.361 29.373,82.361L29.275,82.031L29.634,82.148L29.946,82.297ZM25.888,79.962C25.686,79.743 25.451,79.558 25.166,79.394C24.932,79.259 24.701,79.162 24.466,79.096C24.375,78.556 24.255,77.894 24.012,77.253C24.722,77.318 25.364,77.551 26.023,77.912C26.774,78.363 27.354,78.896 27.795,79.624C28.227,80.366 28.495,81.128 28.67,81.758C28.741,82.007 28.809,82.252 28.868,82.463C28.868,82.462 28.924,82.659 28.97,82.816C28.301,83.133 27.756,83.308 27.208,83.285C27.155,83.104 27.106,82.929 27.064,82.774C27.003,82.549 26.956,82.367 26.915,82.2C26.666,81.209 26.42,80.509 25.888,79.962ZM26.626,83.188L26.235,83.021L25.921,82.834L26.248,82.697L26.48,82.598L26.542,82.847L26.626,83.188ZM25.235,80.026L24.913,80.15L24.654,80.249L24.609,79.976L24.556,79.64L24.922,79.817L25.235,80.026ZM21.486,77.166L21.485,77.165C21.303,76.925 21.088,76.702 20.823,76.489C20.627,76.335 20.43,76.214 20.223,76.117C20.199,75.57 20.151,74.911 20,74.224C20.665,74.4 21.288,74.677 21.866,75.133C22.556,75.684 23.074,76.279 23.403,77.084C23.752,77.839 23.892,78.666 23.985,79.308C24.017,79.539 24.05,79.757 24.091,80.017C24.115,80.17 24.136,80.303 24.158,80.424C23.458,80.662 22.888,80.75 22.342,80.636L22.267,80.082L22.195,79.522L22.195,79.521C22.061,78.529 21.937,77.765 21.486,77.166ZM21.78,80.44L21.462,80.264C21.344,80.19 21.241,80.109 21.148,80.021L21.486,79.931L21.707,79.866L21.736,80.091L21.78,80.44ZM20.826,77.15L20.497,77.228L20.253,77.283L20.247,77.031L20.239,76.682L20.524,76.877L20.826,77.15ZM44.64,85.213L45,85.198L45.017,85.196L45.361,85.21L45.142,85.486C45.142,85.486 45.076,85.569 45,85.662L45,85.664L45,85.664C44.924,85.57 44.857,85.486 44.857,85.486L44.64,85.213ZM49.893,84.912L50.231,84.847L50.64,84.823L50.461,85.113L50.328,85.327L50.145,85.153L49.893,84.912ZM55.038,83.962L55.423,83.824L55.791,83.746L55.651,84.064L55.538,84.32L55.313,84.16L55.038,83.962ZM60.366,82.464L60.061,82.296L60.4,82.135L60.729,82.025L60.63,82.359L60.564,82.571L60.366,82.464ZM65.12,80.132L64.794,80.007L65.082,79.815L65.448,79.638L65.396,79.974L65.355,80.22L65.12,80.132ZM69.507,77.226L69.177,77.147L69.479,76.874L69.79,76.661L69.784,77.008L69.776,77.287L69.507,77.226ZM70.175,73.682C69.317,73.853 68.563,74.19 67.84,74.742C67.123,75.309 66.582,75.935 66.212,76.749C65.315,76.775 64.539,77.049 63.735,77.487C62.963,77.952 62.354,78.492 61.879,79.23C61.013,79.174 60.195,79.294 59.369,79.651C58.525,79.982 57.865,80.493 57.286,81.141C56.433,80.977 55.601,80.982 54.728,81.227C53.845,81.462 53.109,81.851 52.454,82.45C51.616,82.131 50.795,82.085 49.885,82.18C48.992,82.311 48.221,82.579 47.499,83.073C46.721,82.709 45.917,82.469 45.015,82.507L45,82.508C44.098,82.473 43.294,82.714 42.516,83.084C41.79,82.583 41.014,82.312 40.115,82.18C39.205,82.085 38.385,82.131 37.548,82.449C36.892,81.851 36.158,81.462 35.276,81.228C34.409,80.984 33.583,80.979 32.735,81.139C32.158,80.497 31.5,79.994 30.663,79.663C29.829,79.307 29.008,79.185 28.134,79.247C27.659,78.502 27.046,77.957 26.268,77.488C25.465,77.051 24.688,76.777 23.792,76.751C23.422,75.938 22.882,75.312 22.164,74.745C21.447,74.197 20.697,73.86 19.847,73.688C19.555,72.88 19.152,72.148 18.491,71.534C17.873,70.869 17.134,70.466 16.319,70.175C16.148,69.318 15.809,68.563 15.258,67.84C14.691,67.123 14.065,66.582 13.251,66.212C13.225,65.315 12.951,64.539 12.513,63.735C12.048,62.963 11.508,62.354 10.77,61.879C10.826,61.013 10.706,60.195 10.349,59.369C10.017,58.525 9.507,57.865 8.859,57.287C9.023,56.433 9.018,55.601 8.773,54.728C8.539,53.845 8.149,53.109 7.55,52.454C7.869,51.616 7.915,50.795 7.821,49.885C7.689,48.992 7.42,48.221 6.927,47.499C7.291,46.721 7.531,45.917 7.493,45.015L7.492,45C7.528,44.098 7.286,43.294 6.917,42.516C7.417,41.79 7.688,41.014 7.821,40.115C7.915,39.205 7.87,38.385 7.551,37.548C8.149,36.892 8.538,36.158 8.772,35.276C9.015,34.409 9.021,33.583 8.861,32.734C9.503,32.158 10.006,31.5 10.336,30.663C10.693,29.829 10.815,29.008 10.753,28.134C11.499,27.659 12.043,27.046 12.512,26.268C12.949,25.465 13.223,24.688 13.249,23.792C14.062,23.422 14.688,22.882 15.255,22.164C15.802,21.447 16.139,20.697 16.312,19.847C17.121,19.555 17.852,19.152 18.466,18.492C19.13,17.873 19.534,17.134 19.825,16.319C20.682,16.148 21.438,15.809 22.16,15.258C22.877,14.691 23.418,14.065 23.788,13.251C24.685,13.225 25.461,12.951 26.264,12.513C27.037,12.048 27.647,11.508 28.121,10.77C28.987,10.826 29.805,10.706 30.631,10.349C31.475,10.017 32.135,9.507 32.714,8.859C33.567,9.023 34.399,9.018 35.273,8.773C36.155,8.539 36.89,8.149 37.545,7.55C38.384,7.869 39.205,7.915 40.116,7.821C41.007,7.689 41.779,7.42 42.501,6.927C43.279,7.291 44.083,7.531 44.985,7.493L45,7.493C45.901,7.528 46.706,7.286 47.484,6.917C48.211,7.417 48.986,7.688 49.885,7.821C50.795,7.915 51.615,7.87 52.452,7.551C53.108,8.149 53.842,8.538 54.724,8.772C55.591,9.015 56.417,9.021 57.266,8.861C57.842,9.503 58.499,10.006 59.337,10.336C60.171,10.693 60.992,10.815 61.866,10.753C62.341,11.499 62.954,12.043 63.732,12.512C64.535,12.949 65.312,13.223 66.208,13.249C66.578,14.062 67.118,14.688 67.836,15.255C68.553,15.802 69.303,16.139 70.153,16.312C70.445,17.121 70.848,17.852 71.509,18.466C72.127,19.13 72.866,19.534 73.682,19.825C73.853,20.682 74.19,21.438 74.742,22.16C75.309,22.877 75.935,23.418 76.749,23.788C76.775,24.685 77.049,25.461 77.487,26.264C77.952,27.037 78.492,27.647 79.23,28.121C79.174,28.987 79.294,29.805 79.651,30.631C79.982,31.475 80.493,32.135 81.141,32.713C80.977,33.567 80.982,34.399 81.227,35.273C81.462,36.155 81.851,36.89 82.45,37.546C82.131,38.384 82.085,39.205 82.18,40.115C82.311,41.007 82.579,41.779 83.073,42.501C82.709,43.279 82.469,44.083 82.507,44.985L82.508,45C82.473,45.901 82.714,46.706 83.084,47.484C82.583,48.211 82.312,48.986 82.18,49.885C82.085,50.795 82.131,51.615 82.449,52.452C81.851,53.108 81.462,53.842 81.228,54.724C80.984,55.591 80.979,56.417 81.139,57.266C80.497,57.842 79.994,58.5 79.663,59.337C79.307,60.171 79.185,60.992 79.247,61.866C78.502,62.341 77.957,62.954 77.488,63.732C77.051,64.535 76.777,65.312 76.751,66.208C75.938,66.578 75.312,67.118 74.745,67.836C74.197,68.553 73.86,69.303 73.688,70.153C72.88,70.445 72.148,70.848 71.534,71.509C70.869,72.127 70.466,72.866 70.175,73.682ZM17.485,73.785C17.344,73.535 17.165,73.309 16.936,73.091C16.756,72.904 16.571,72.749 16.373,72.623C16.43,72.069 16.46,71.419 16.394,70.729C17.052,70.977 17.635,71.339 18.146,71.88C18.785,72.47 19.16,73.182 19.42,73.968C19.674,74.771 19.689,75.636 19.716,76.266L19.716,76.267L19.731,77C19.734,77.153 19.738,77.278 19.742,77.391C19.013,77.523 18.425,77.57 17.911,77.385C17.908,77.21 17.908,77.034 17.91,76.835C17.911,76.659 17.914,76.43 17.915,76.213C17.912,75.214 17.86,74.466 17.485,73.785ZM16.824,73.69L16.474,73.731C16.474,73.731 16.368,73.742 16.249,73.755L16.272,73.53L16.313,73.184L16.59,73.437L16.824,73.69ZM13.97,69.977L13.969,69.975C13.865,69.697 13.716,69.438 13.514,69.182C13.348,68.967 13.163,68.796 12.983,68.636C13.111,68.097 13.243,67.446 13.26,66.763C13.906,67.083 14.394,67.556 14.871,68.138C15.405,68.833 15.717,69.564 15.86,70.395C15.983,71.24 15.921,72.065 15.854,72.703L15.77,73.428L15.731,73.792C14.988,73.831 14.417,73.787 13.916,73.56C13.936,73.373 13.955,73.194 13.98,73.031L14.066,72.438L14.066,72.438C14.216,71.426 14.234,70.702 13.97,69.977ZM10.956,65.72C10.887,65.423 10.779,65.132 10.608,64.837C10.484,64.621 10.346,64.435 10.191,64.268C10.369,63.758 10.603,63.115 10.71,62.43C11.267,62.843 11.712,63.349 12.09,63.98C12.513,64.755 12.764,65.504 12.77,66.368C12.784,67.214 12.622,68.016 12.46,68.646L12.46,68.646C12.399,68.89 12.337,69.127 12.28,69.348C12.248,69.466 12.218,69.604 12.186,69.75C11.456,69.698 10.898,69.561 10.431,69.251L10.568,68.712L10.713,68.169C10.991,67.185 11.144,66.446 10.956,65.72ZM8.552,61.066C8.519,60.781 8.426,60.51 8.316,60.213C8.222,59.972 8.108,59.76 7.972,59.567C8.237,59.078 8.499,58.494 8.72,57.825C9.212,58.313 9.635,58.861 9.897,59.557C10.238,60.355 10.355,61.137 10.268,61.975C10.196,62.814 9.9,63.609 9.663,64.213L9.663,64.214L9.4,64.896L9.264,65.26C8.527,65.112 7.981,64.922 7.577,64.554C7.647,64.372 7.719,64.197 7.783,64.046C7.878,63.82 7.955,63.639 8.022,63.475C8.393,62.553 8.657,61.83 8.552,61.066ZM6.768,56.202C6.777,55.906 6.737,55.61 6.648,55.296C6.569,55.036 6.479,54.803 6.372,54.586C6.696,54.139 7.066,53.589 7.342,52.966C7.815,53.51 8.096,54.131 8.301,54.854C8.54,55.695 8.53,56.495 8.351,57.314C8.15,58.139 7.755,58.884 7.459,59.443L7.107,60.08C7.108,60.079 7.011,60.257 6.934,60.401C6.23,60.154 5.714,59.896 5.338,59.495C5.432,59.328 5.525,59.168 5.608,59.028L5.914,58.514C6.431,57.639 6.733,56.976 6.768,56.204L6.768,56.202ZM5.883,54.396L5.45,54.974C5.378,55.07 5.286,55.189 5.201,55.312C4.56,54.979 4.087,54.642 3.776,54.177L4.109,53.73C4.11,53.729 4.447,53.285 4.453,53.285C5.09,52.482 5.512,51.861 5.618,51.119L5.619,51.118C5.671,50.817 5.683,50.507 5.638,50.168C5.607,49.922 5.552,49.696 5.473,49.482C5.833,49.08 6.291,48.577 6.659,47.985C7.009,48.581 7.231,49.219 7.335,49.948C7.428,50.826 7.371,51.613 7.045,52.413C6.726,53.2 6.275,53.876 5.883,54.396ZM6.253,55.791L5.936,55.651L5.68,55.538L5.84,55.313L6.038,55.038L6.176,55.423L6.253,55.791ZM3.729,53.36L3.51,53.642L3.418,53.29L3.374,52.896L3.677,53.07L3.872,53.182L3.729,53.36ZM3.335,48.352C3.46,48.229 3.623,48.069 3.777,47.916L3.778,47.915C4.477,47.207 4.982,46.642 5.191,45.896L5.191,45.896C5.268,45.618 5.301,45.332 5.292,45.016L5.291,45C5.296,44.746 5.275,44.511 5.227,44.286C5.655,43.935 6.146,43.496 6.577,42.96C6.876,43.598 7.023,44.262 7.003,45L7.004,45.016C7.038,45.885 6.809,46.653 6.427,47.395C6.038,48.143 5.453,48.762 5.007,49.229L5.007,49.229L4.502,49.758C4.398,49.866 4.312,49.957 4.234,50.042C3.615,49.621 3.178,49.237 2.948,48.741L3.335,48.352ZM2.759,48.183L2.704,47.79L2.7,47.36L2.981,47.569L3.21,47.738L3.009,47.936L2.759,48.183ZM3.243,42.883L3.722,42.525C4.542,41.914 5.086,41.417 5.392,40.716C5.517,40.445 5.597,40.157 5.639,39.831C5.672,39.563 5.673,39.313 5.644,39.071C6.106,38.779 6.673,38.414 7.17,37.943C7.382,38.624 7.415,39.305 7.336,40.052C7.209,40.919 6.935,41.66 6.438,42.347C5.921,43.031 5.309,43.572 4.803,43.976L4.23,44.429C4.231,44.429 4.072,44.556 3.944,44.66C3.392,44.162 3.02,43.726 2.828,43.212C2.974,43.093 3.117,42.98 3.243,42.883ZM2.699,42.639L2.703,42.212L2.754,41.851L3.006,42.1L3.188,42.277L2.981,42.429L2.699,42.639ZM3.887,37.42C3.888,37.419 4.375,37.14 4.378,37.139L4.379,37.138C5.235,36.631 5.902,36.225 6.282,35.578C6.438,35.319 6.547,35.032 6.647,34.708C6.715,34.468 6.752,34.24 6.763,34.012C7.269,33.783 7.84,33.48 8.423,33.079C8.509,33.759 8.512,34.445 8.3,35.15C8.069,36 7.7,36.702 7.094,37.316C6.531,37.929 5.82,38.375 5.263,38.708L5.262,38.708C5.038,38.84 4.832,38.968 4.649,39.079C4.518,39.159 4.406,39.23 4.3,39.297C3.811,38.742 3.508,38.25 3.406,37.704C3.575,37.601 3.742,37.503 3.887,37.42ZM3.37,37.11L3.412,36.747C3.438,36.61 3.464,36.482 3.512,36.363L3.729,36.64L3.874,36.821L3.677,36.933L3.37,37.11ZM5.211,32.149C5.386,32.079 5.591,31.997 5.787,31.917L5.788,31.917C6.723,31.536 7.373,31.194 7.866,30.591C8.045,30.365 8.188,30.114 8.303,29.82C8.394,29.577 8.469,29.349 8.513,29.118C9.043,28.958 9.672,28.746 10.272,28.415C10.313,29.126 10.165,29.787 9.884,30.476C9.569,31.285 9.073,31.909 8.441,32.448C7.783,32.986 7.007,33.336 6.433,33.601L6.433,33.602L5.759,33.896L5.402,34.055C4.998,33.432 4.744,32.912 4.701,32.36L5.211,32.149ZM4.745,31.773L4.848,31.39L5.011,30.995L5.189,31.296L5.333,31.538L5.073,31.641L4.745,31.773ZM12.834,21.486L12.835,21.485C13.075,21.302 13.298,21.088 13.511,20.823C13.665,20.627 13.786,20.43 13.883,20.223C14.429,20.199 15.089,20.151 15.777,20C15.6,20.665 15.324,21.288 14.868,21.866C14.316,22.556 13.721,23.074 12.916,23.403C12.161,23.752 11.334,23.892 10.692,23.985C10.46,24.017 10.242,24.05 9.984,24.091C9.831,24.115 9.698,24.136 9.576,24.158C9.338,23.458 9.25,22.888 9.364,22.342L9.917,22.267L10.478,22.195L10.479,22.195C11.47,22.061 12.235,21.937 12.834,21.486ZM12.717,20.253L12.968,20.247L13.318,20.239L13.123,20.524L12.85,20.826L12.772,20.497L12.717,20.253ZM10.36,24.556L10.183,24.922L9.973,25.235L9.849,24.913L9.751,24.654L10.024,24.609L10.36,24.556ZM10.038,25.888C10.257,25.686 10.443,25.451 10.606,25.166C10.741,24.932 10.838,24.701 10.904,24.466C11.445,24.375 12.106,24.255 12.747,24.012C12.682,24.722 12.449,25.364 12.088,26.023C11.637,26.774 11.104,27.354 10.376,27.795C9.633,28.227 8.873,28.495 8.242,28.67C7.993,28.741 7.749,28.809 7.537,28.868C7.538,28.868 7.341,28.924 7.183,28.97C6.867,28.301 6.692,27.756 6.715,27.208C6.896,27.155 7.072,27.106 7.226,27.064C7.451,27.003 7.633,26.956 7.799,26.915L7.8,26.915C8.791,26.666 9.491,26.42 10.038,25.888ZM7.639,29.373L7.969,29.275L7.851,29.634L7.704,29.946L7.534,29.639C7.534,29.639 7.483,29.545 7.427,29.439C7.539,29.404 7.639,29.373 7.639,29.373ZM5.926,34.384L6.247,34.243L6.174,34.581L6.038,34.962L5.839,34.688L5.695,34.486L5.926,34.384ZM4.886,39.542L5.176,39.364L5.153,39.768L5.081,40.138L4.842,39.889L4.652,39.688L4.886,39.542ZM4.336,45C4.43,44.924 4.514,44.857 4.514,44.857L4.787,44.64L4.802,45L4.803,45.017L4.79,45.361L4.513,45.142C4.513,45.142 4.431,45.076 4.338,45L4.336,45L4.336,45ZM4.847,50.145L5.088,49.893L5.153,50.231L5.176,50.64L4.887,50.461L4.673,50.328L4.847,50.145ZM7.536,60.366L7.704,60.061L7.865,60.4L7.974,60.729L7.64,60.63L7.429,60.564L7.536,60.366ZM9.868,65.12L9.993,64.794L10.185,65.082L10.363,65.448L10.027,65.396L9.78,65.355L9.868,65.12ZM12.775,69.507L12.853,69.177L13.126,69.479L13.338,69.79L12.992,69.784L12.713,69.776L12.775,69.507ZM16.572,15.77L16.208,15.731C16.169,14.988 16.213,14.417 16.441,13.916C16.627,13.936 16.806,13.955 16.969,13.98L17.562,14.066C18.575,14.216 19.298,14.234 20.023,13.97L20.025,13.969C20.303,13.865 20.562,13.716 20.818,13.514C21.033,13.348 21.205,13.163 21.365,12.983C21.904,13.111 22.554,13.243 23.237,13.26C22.917,13.906 22.444,14.394 21.862,14.871C21.167,15.404 20.435,15.717 19.605,15.86C18.76,15.983 17.935,15.921 17.297,15.854L16.572,15.77ZM16.816,16.313L16.563,16.59L16.309,16.824L16.269,16.474C16.269,16.474 16.257,16.368 16.245,16.249L16.47,16.272L16.816,16.313ZM16.758,13.424L17.063,13.122L17.353,12.901L17.355,13.257L17.359,13.512L17.105,13.474L16.758,13.424ZM21.288,10.568L21.831,10.713C22.815,10.991 23.553,11.144 24.28,10.956C24.577,10.887 24.868,10.779 25.163,10.608C25.378,10.484 25.565,10.346 25.732,10.191C26.242,10.369 26.885,10.603 27.57,10.71C27.157,11.267 26.652,11.712 26.02,12.09C25.245,12.513 24.496,12.764 23.632,12.77C22.787,12.784 21.984,12.621 21.354,12.46L21.354,12.46C21.11,12.399 20.874,12.337 20.653,12.28C20.534,12.248 20.396,12.218 20.25,12.186C20.302,11.456 20.44,10.898 20.749,10.431L21.288,10.568ZM21.14,9.981L21.428,9.758L21.775,9.566L21.73,9.913L21.702,10.136L21.481,10.072L21.14,9.981ZM25.954,7.783C26.18,7.878 26.361,7.955 26.525,8.022L26.525,8.022C27.447,8.393 28.17,8.657 28.934,8.552C29.219,8.519 29.49,8.426 29.787,8.316C30.028,8.222 30.24,8.108 30.433,7.972C30.922,8.237 31.506,8.499 32.175,8.72C31.687,9.212 31.139,9.635 30.443,9.897C29.645,10.238 28.864,10.355 28.025,10.268C27.186,10.196 26.391,9.9 25.787,9.663L25.787,9.663L25.104,9.4L24.74,9.264C24.888,8.527 25.078,7.981 25.446,7.577C25.628,7.647 25.802,7.719 25.954,7.783ZM25.889,7.186L26.229,6.983L26.624,6.813L26.539,7.154L26.471,7.43L26.212,7.321L25.889,7.186ZM31.486,5.914L31.486,5.914C32.361,6.431 33.025,6.733 33.796,6.768L33.798,6.768C34.094,6.777 34.389,6.737 34.704,6.648C34.964,6.569 35.197,6.479 35.414,6.372C35.862,6.696 36.411,7.066 37.034,7.342C36.49,7.815 35.869,8.096 35.146,8.301C34.304,8.54 33.504,8.53 32.686,8.351C31.861,8.15 31.116,7.755 30.556,7.459L29.92,7.107C29.92,7.108 29.743,7.011 29.599,6.934C29.846,6.23 30.104,5.714 30.505,5.338C30.671,5.432 30.832,5.525 30.972,5.608L31.486,5.914ZM30.991,5.013L31.387,4.849L31.739,4.754L31.605,5.085L31.511,5.321L31.291,5.19L30.991,5.013ZM36.715,4.453C37.518,5.09 38.139,5.512 38.881,5.618L38.882,5.618C39.183,5.671 39.493,5.683 39.832,5.638C40.078,5.607 40.304,5.552 40.518,5.473C40.92,5.833 41.423,6.291 42.015,6.659C41.419,7.009 40.781,7.231 40.052,7.335C39.174,7.428 38.386,7.371 37.586,7.045C36.8,6.726 36.124,6.275 35.604,5.883L35.026,5.45C34.93,5.378 34.811,5.286 34.688,5.201C35.02,4.56 35.358,4.087 35.823,3.776L36.269,4.109C36.271,4.11 36.715,4.447 36.715,4.453ZM36.358,3.51L36.71,3.418L37.105,3.374L36.93,3.677L36.818,3.872L36.64,3.729L36.358,3.51ZM42.084,3.777L42.085,3.778C42.793,4.477 43.358,4.982 44.104,5.191L44.105,5.191C44.382,5.268 44.668,5.301 44.984,5.292L45,5.291C45.254,5.296 45.489,5.275 45.714,5.227C46.065,5.655 46.504,6.146 47.04,6.577C46.402,6.876 45.738,7.023 45,7.003L44.984,7.004C44.115,7.038 43.346,6.809 42.605,6.427C41.858,6.038 41.238,5.453 40.771,5.007L40.771,5.007L40.242,4.502C40.134,4.398 40.042,4.312 39.958,4.234C40.379,3.615 40.763,3.178 41.259,2.948L41.648,3.335C41.771,3.46 41.931,3.623 42.084,3.777ZM41.818,2.759L42.209,2.704L42.64,2.7L42.43,2.981L42.262,3.21L42.064,3.009L41.818,2.759ZM47.476,3.722C48.086,4.542 48.583,5.086 49.284,5.392C49.555,5.517 49.844,5.597 50.169,5.638C50.437,5.672 50.687,5.673 50.929,5.644C51.222,6.106 51.586,6.673 52.057,7.17C51.377,7.382 50.695,7.415 49.948,7.336C49.081,7.209 48.341,6.935 47.652,6.438C46.969,5.921 46.429,5.309 46.024,4.803L45.571,4.23C45.571,4.231 45.444,4.072 45.34,3.944C45.838,3.392 46.273,3.02 46.788,2.828C46.907,2.974 47.02,3.117 47.117,3.243L47.476,3.722ZM47.361,2.699L47.787,2.703L48.149,2.754L47.899,3.006L47.724,3.188L47.571,2.981L47.361,2.699ZM49.861,5.081L50.111,4.842L50.313,4.652L50.458,4.886L50.637,5.176L50.231,5.153L49.861,5.081ZM54.422,6.282C54.682,6.438 54.968,6.547 55.293,6.647C55.531,6.715 55.761,6.752 55.988,6.763C56.217,7.269 56.52,7.84 56.921,8.423C56.241,8.509 55.555,8.512 54.85,8.3C54.001,8.069 53.298,7.7 52.684,7.094C52.071,6.53 51.624,5.82 51.291,5.263L51.291,5.263C51.16,5.038 51.031,4.832 50.921,4.649C50.841,4.518 50.771,4.406 50.703,4.3C51.258,3.811 51.75,3.508 52.297,3.406C52.399,3.575 52.496,3.742 52.58,3.888C52.581,3.888 52.86,4.375 52.861,4.378L52.861,4.379C53.369,5.235 53.775,5.902 54.422,6.282ZM52.891,3.37L53.253,3.412C53.39,3.438 53.519,3.464 53.638,3.512L53.36,3.729L53.18,3.874L53.066,3.677L52.891,3.37ZM55.037,6.038L55.313,5.839L55.515,5.695L55.616,5.926L55.757,6.247L55.419,6.174L55.037,6.038ZM59.409,7.866C59.635,8.045 59.887,8.188 60.18,8.303C60.423,8.394 60.651,8.469 60.882,8.513C61.041,9.043 61.255,9.672 61.585,10.272C60.873,10.312 60.213,10.165 59.524,9.885C58.715,9.569 58.092,9.073 57.552,8.441C57.014,7.783 56.664,7.007 56.399,6.433L56.398,6.433L56.104,5.759L55.945,5.402C56.567,4.998 57.089,4.744 57.64,4.701L57.852,5.211C57.921,5.386 58.003,5.591 58.083,5.787L58.083,5.788C58.465,6.723 58.806,7.373 59.409,7.866ZM58.227,4.745L58.61,4.848L59.005,5.011L58.703,5.189L58.463,5.333L58.359,5.073L58.227,4.745ZM60.054,7.704L60.361,7.534C60.361,7.534 60.455,7.483 60.561,7.427C60.596,7.539 60.627,7.639 60.627,7.639L60.725,7.969L60.366,7.851L60.054,7.704ZM64.112,10.038C64.314,10.257 64.55,10.443 64.834,10.606C65.068,10.741 65.299,10.838 65.534,10.904C65.625,11.445 65.745,12.106 65.988,12.747C65.278,12.682 64.636,12.449 63.978,12.088C63.226,11.637 62.646,11.104 62.205,10.376C61.773,9.633 61.505,8.873 61.33,8.242C61.259,7.993 61.191,7.749 61.133,7.537C61.132,7.538 61.076,7.341 61.029,7.183C61.699,6.867 62.244,6.692 62.792,6.715C62.845,6.896 62.895,7.071 62.936,7.226C62.997,7.451 63.044,7.633 63.085,7.799L63.085,7.8C63.334,8.791 63.58,9.491 64.112,10.038ZM63.373,6.811L63.766,6.98L64.079,7.167L63.752,7.303L63.52,7.402L63.459,7.153L63.373,6.811ZM64.766,9.973L65.087,9.849L65.347,9.751L65.391,10.024L65.444,10.36L65.078,10.183L64.766,9.973ZM68.515,12.834L68.515,12.835C68.697,13.075 68.912,13.298 69.177,13.511C69.373,13.665 69.57,13.786 69.776,13.883C69.801,14.429 69.85,15.089 70.001,15.777C69.336,15.6 68.712,15.324 68.134,14.868C67.444,14.316 66.926,13.721 66.597,12.916C66.248,12.161 66.108,11.334 66.015,10.692C65.983,10.46 65.95,10.243 65.909,9.983C65.886,9.831 65.863,9.698 65.842,9.576C66.542,9.338 67.112,9.25 67.657,9.364L67.733,9.917L67.805,10.478L67.805,10.479C67.939,11.47 68.063,12.235 68.515,12.834ZM68.22,9.559L68.538,9.736C68.656,9.81 68.76,9.891 68.852,9.979L68.515,10.07L68.293,10.134L68.265,9.91L68.22,9.559ZM69.174,12.85L69.504,12.772L69.746,12.717L69.753,12.968L69.761,13.318L69.476,13.123L69.174,12.85ZM45.36,4.787L45,4.802L44.983,4.803L44.639,4.79L44.858,4.513C44.858,4.513 44.924,4.431 45,4.338L45,4.336L45,4.336C45.076,4.43 45.143,4.514 45.143,4.514L45.36,4.787ZM40.107,5.088L39.769,5.153L39.361,5.176L39.539,4.887L39.672,4.673L39.855,4.847L40.107,5.088ZM34.961,6.038L34.577,6.176L34.209,6.253L34.348,5.936L34.462,5.68L34.688,5.84L34.961,6.038ZM29.634,7.536L29.939,7.704L29.599,7.865L29.271,7.974L29.37,7.64L29.436,7.429L29.634,7.536ZM24.88,9.868L25.206,9.993L24.918,10.185L24.551,10.363L24.604,10.027L24.645,9.78L24.88,9.868ZM20.493,12.775L20.823,12.853L20.521,13.126L20.209,13.338L20.216,12.992L20.224,12.713L20.493,12.775ZM72.516,16.215C72.656,16.465 72.835,16.691 73.064,16.909C73.244,17.096 73.429,17.251 73.627,17.377C73.57,17.93 73.54,18.581 73.606,19.271C72.947,19.023 72.365,18.662 71.854,18.12C71.215,17.53 70.841,16.819 70.58,16.033C70.326,15.229 70.311,14.364 70.283,13.734L70.283,13.734L70.269,13C70.266,12.847 70.263,12.722 70.259,12.609C70.986,12.477 71.575,12.429 72.09,12.615C72.092,12.79 72.093,12.966 72.091,13.166C72.089,13.341 72.086,13.57 72.085,13.787C72.089,14.787 72.14,15.534 72.516,16.215ZM73.176,16.309L73.525,16.269C73.525,16.269 73.632,16.257 73.751,16.245L73.728,16.47L73.688,16.816L73.409,16.563L73.176,16.309ZM76.029,20.023L76.031,20.025C76.136,20.303 76.283,20.562 76.486,20.818C76.651,21.033 76.837,21.205 77.018,21.365C76.889,21.904 76.758,22.554 76.74,23.237C76.094,22.917 75.606,22.444 75.129,21.862C74.596,21.167 74.283,20.435 74.14,19.605C74.017,18.76 74.079,17.935 74.146,17.297L74.23,16.572L74.27,16.208C75.012,16.169 75.584,16.213 76.084,16.441C76.064,16.627 76.045,16.806 76.02,16.969L75.934,17.562C75.784,18.575 75.766,19.298 76.029,20.023ZM79.044,24.28C79.113,24.577 79.221,24.868 79.393,25.163C79.516,25.378 79.654,25.565 79.81,25.732C79.631,26.242 79.397,26.885 79.29,27.57C78.733,27.157 78.288,26.652 77.91,26.02C77.487,25.245 77.235,24.496 77.23,23.632C77.216,22.787 77.379,21.984 77.54,21.354C77.601,21.11 77.663,20.874 77.72,20.653C77.752,20.534 77.781,20.396 77.814,20.25C78.545,20.302 79.103,20.44 79.569,20.749L79.432,21.288L79.286,21.831C79.009,22.815 78.856,23.553 79.044,24.28ZM81.447,28.934C81.481,29.219 81.574,29.49 81.684,29.787C81.778,30.028 81.893,30.24 82.028,30.433C81.763,30.922 81.501,31.506 81.28,32.175C80.788,31.687 80.365,31.139 80.103,30.443C79.762,29.645 79.646,28.864 79.731,28.025C79.804,27.186 80.1,26.391 80.337,25.787L80.337,25.787L80.6,25.104L80.736,24.74C81.473,24.888 82.019,25.078 82.424,25.446C82.353,25.628 82.281,25.802 82.217,25.954C82.122,26.18 82.045,26.361 81.978,26.525L81.978,26.525C81.607,27.447 81.343,28.17 81.447,28.934ZM83.232,33.798C83.224,34.094 83.263,34.389 83.353,34.704C83.431,34.964 83.521,35.197 83.628,35.414C83.304,35.862 82.935,36.411 82.658,37.034C82.185,36.49 81.904,35.869 81.699,35.146C81.46,34.304 81.47,33.504 81.648,32.686C81.85,31.861 82.245,31.116 82.541,30.556L82.893,29.92C82.893,29.92 82.989,29.743 83.066,29.599C83.77,29.846 84.286,30.104 84.662,30.505C84.567,30.671 84.475,30.832 84.392,30.972L84.087,31.486C83.569,32.361 83.267,33.025 83.231,33.796L83.232,33.798ZM84.116,35.604L84.55,35.026C84.622,34.93 84.714,34.811 84.8,34.688C85.439,35.02 85.913,35.358 86.224,35.823L85.891,36.269C85.89,36.271 85.553,36.715 85.547,36.715C84.91,37.518 84.488,38.139 84.382,38.881L84.382,38.882C84.329,39.183 84.317,39.493 84.362,39.832C84.393,40.078 84.448,40.304 84.527,40.518C84.166,40.92 83.709,41.423 83.342,42.015C82.991,41.419 82.769,40.781 82.664,40.052C82.572,39.174 82.629,38.386 82.955,37.586C83.274,36.8 83.725,36.124 84.116,35.604ZM83.746,34.209L84.064,34.348L84.32,34.462L84.16,34.688L83.962,34.961L83.824,34.577L83.746,34.209ZM86.271,36.64L86.49,36.358L86.582,36.71L86.626,37.105L86.323,36.93L86.128,36.818L86.271,36.64ZM82.464,29.634L82.296,29.939L82.135,29.599L82.025,29.271L82.359,29.37L82.571,29.436L82.464,29.634ZM80.132,24.88L80.007,25.206L79.815,24.918L79.638,24.551L79.974,24.604L80.22,24.645L80.132,24.88ZM77.226,20.493L77.147,20.823L76.874,20.521L76.661,20.209L77.008,20.216L77.287,20.224L77.226,20.493ZM79.64,65.444L79.817,65.078L80.026,64.766L80.15,65.087L80.249,65.347L79.976,65.391L79.64,65.444ZM79.962,64.112C79.743,64.314 79.558,64.55 79.394,64.834C79.259,65.068 79.162,65.299 79.096,65.534C78.556,65.625 77.894,65.745 77.253,65.988C77.318,65.278 77.551,64.636 77.912,63.978C78.363,63.226 78.896,62.646 79.624,62.205C80.366,61.773 81.128,61.505 81.758,61.33C82.007,61.259 82.252,61.191 82.463,61.133C82.462,61.132 82.659,61.076 82.816,61.029C83.133,61.699 83.308,62.244 83.285,62.792C83.104,62.845 82.929,62.895 82.774,62.936C82.549,62.997 82.367,63.044 82.2,63.085C81.209,63.334 80.509,63.58 79.962,64.112ZM82.361,60.627L82.031,60.725L82.148,60.366L82.297,60.054L82.466,60.361C82.466,60.361 82.517,60.455 82.573,60.561C82.461,60.596 82.361,60.627 82.361,60.627ZM84.074,55.616L83.753,55.757L83.825,55.419L83.963,55.037L84.161,55.313L84.305,55.515L84.074,55.616ZM85.114,50.458L84.824,50.637L84.847,50.231L84.919,49.861L85.158,50.111L85.348,50.313L85.114,50.458ZM85.664,45C85.57,45.076 85.486,45.143 85.486,45.143L85.213,45.36L85.198,45L85.196,44.983L85.21,44.639L85.486,44.858C85.486,44.858 85.569,44.924 85.662,45L85.664,45L85.664,45ZM84.809,44.104L84.809,44.104C84.732,44.382 84.699,44.668 84.708,44.984L84.709,45C84.703,45.254 84.725,45.489 84.773,45.714C84.345,46.065 83.854,46.504 83.424,47.04C83.124,46.402 82.978,45.738 82.997,45L82.996,44.984C82.962,44.115 83.19,43.346 83.573,42.605C83.962,41.858 84.548,41.238 84.992,40.771L84.993,40.771L85.498,40.242C85.602,40.134 85.687,40.042 85.767,39.958C86.385,40.379 86.822,40.763 87.052,41.259L86.665,41.648C86.54,41.771 86.377,41.931 86.224,42.084L86.223,42.085C85.523,42.793 85.018,43.358 84.809,44.104ZM84.823,39.361L85.113,39.539L85.327,39.672L85.153,39.855L84.912,40.107L84.847,39.769L84.823,39.361ZM86.991,42.064L87.241,41.818L87.297,42.209L87.3,42.64L87.02,42.43L86.79,42.262L86.991,42.064ZM88.74,36.282C88.887,37.144 88.895,37.94 88.661,38.697C88.182,38.12 87.588,37.71 87.117,37.404C87.128,37.151 87.111,36.891 87.062,36.615C87.009,36.279 86.884,35.989 86.74,35.717L86.739,35.716C86.337,34.992 85.724,34.543 84.797,34.115L84.795,34.115C84.636,34.04 84.456,33.958 84.23,33.861L83.737,33.646C83.803,33.114 84.043,32.611 84.41,31.966L84.777,32.113C84.985,32.197 85.229,32.295 85.476,32.405C86.065,32.681 86.831,33.098 87.487,33.776C88.118,34.451 88.533,35.283 88.74,36.282ZM84.679,31.511L84.81,31.291L84.987,30.991L85.151,31.387L85.246,31.739L84.915,31.605L84.679,31.511ZM87.236,30.681C87.526,31.497 87.595,32.291 87.479,33.063C86.899,32.555 86.316,32.207 85.782,31.971C85.755,31.729 85.7,31.485 85.614,31.23C85.497,30.882 85.347,30.583 85.157,30.322C84.656,29.686 83.955,29.34 83.005,29.025L83.005,29.025L82.46,28.864C82.3,28.82 82.115,28.768 81.927,28.714C81.901,28.181 82.084,27.633 82.369,26.955C82.519,26.991 82.655,27.031 82.772,27.062C82.979,27.117 83.223,27.184 83.469,27.26L83.47,27.26C84.085,27.455 84.931,27.748 85.64,28.333C86.36,28.925 86.921,29.692 87.236,30.681ZM82.569,26.471L82.679,26.212L82.814,25.889L83.018,26.229L83.187,26.624L82.846,26.539L82.569,26.471ZM84.99,25.254C85.394,26.039 85.546,26.844 85.548,27.628C84.91,27.21 84.265,26.958 83.729,26.786C83.683,26.527 83.593,26.271 83.456,26.013C83.295,25.698 83.11,25.434 82.893,25.204L82.893,25.204L82.892,25.204C82.343,24.607 81.574,24.37 80.593,24.184C80.395,24.146 80.188,24.113 80.014,24.085C79.856,24.063 79.683,24.032 79.496,24.007C79.409,23.492 79.514,22.944 79.716,22.215L80.079,22.261C80.347,22.295 80.574,22.327 80.811,22.364L80.811,22.365C81.469,22.465 82.319,22.662 83.107,23.153C83.918,23.63 84.525,24.336 84.99,25.254ZM79.864,21.702L79.928,21.481L80.019,21.14L80.242,21.428L80.435,21.775L80.087,21.73L79.864,21.702ZM82.07,20.203C82.536,20.941 82.847,21.675 82.924,22.463C82.257,22.115 81.554,21.964 81.002,21.863C80.915,21.625 80.8,21.391 80.648,21.155C80.464,20.87 80.242,20.646 80.005,20.451L80.003,20.45C79.36,19.931 78.61,19.762 77.593,19.72L77.592,19.72C77.417,19.712 77.227,19.705 76.976,19.701L76.438,19.69C76.298,19.171 76.312,18.627 76.414,17.883L76.809,17.879C77.045,17.877 77.299,17.876 77.563,17.883C78.226,17.899 79.078,18.001 79.947,18.375C80.8,18.746 81.485,19.366 82.07,20.203ZM76.488,17.359L76.526,17.105L76.576,16.758L76.878,17.063L77.099,17.353L76.743,17.355L76.488,17.359ZM78.532,15.612C79.104,16.261 79.486,16.955 79.668,17.717C78.948,17.463 78.261,17.379 77.681,17.363C77.564,17.149 77.421,16.943 77.245,16.741C77.001,16.466 76.762,16.237 76.472,16.082L76.471,16.082C75.764,15.687 74.998,15.622 73.988,15.706L73.424,15.766C73.257,15.786 73.067,15.808 72.874,15.83C72.646,15.348 72.619,14.756 72.607,14.038C72.729,14.02 72.863,14 73.026,13.977C73.246,13.942 73.49,13.917 73.747,13.893C74.393,13.835 75.269,13.8 76.164,14.054C77.044,14.335 77.869,14.816 78.532,15.612ZM72.61,13.512L72.613,13.231L72.616,12.878L72.933,13.118L73.237,13.42L72.89,13.47L72.61,13.512ZM74.383,11.463C75.061,12.029 75.507,12.715 75.804,13.444C75.058,13.299 74.367,13.309 73.809,13.354C73.66,13.14 73.476,12.943 73.255,12.75C72.988,12.519 72.718,12.342 72.431,12.212L72.429,12.211C71.685,11.883 70.891,11.948 69.915,12.146L69.344,12.277C69.155,12.326 68.99,12.368 68.828,12.41C68.555,11.963 68.443,11.414 68.355,10.659L68.708,10.566C68.931,10.505 69.171,10.443 69.422,10.386C70.057,10.243 70.938,10.077 71.846,10.237C72.769,10.379 73.616,10.778 74.383,11.463ZM69.762,7.907C70.484,8.396 71.025,8.992 71.417,9.665C70.651,9.621 69.961,9.727 69.408,9.847C69.236,9.661 69.049,9.477 68.81,9.33C68.523,9.146 68.24,9.012 67.946,8.924C67.162,8.674 66.388,8.83 65.438,9.167L65.438,9.167C65.27,9.227 65.087,9.294 64.862,9.382C64.712,9.44 64.54,9.506 64.363,9.574C64.029,9.162 63.838,8.647 63.649,7.917C63.757,7.872 63.874,7.823 64.011,7.765C64.216,7.678 64.457,7.579 64.707,7.484L64.708,7.484C65.332,7.239 66.161,7.004 67.101,7.028C68.038,7.035 68.899,7.36 69.762,7.907ZM61.954,4.474C62.881,4.386 63.814,4.544 64.741,5.007C65.508,5.407 66.14,5.878 66.594,6.522C65.838,6.551 65.155,6.761 64.62,6.956C64.432,6.801 64.221,6.664 63.982,6.542C63.657,6.369 63.336,6.275 63.013,6.235C62.207,6.14 61.483,6.353 60.574,6.836L60.075,7.106L59.594,7.373C59.203,7.001 58.944,6.486 58.661,5.821L59.022,5.607C59.21,5.497 59.434,5.361 59.66,5.244L59.661,5.244C60.236,4.944 61.026,4.589 61.954,4.474ZM56.501,2.601C57.404,2.39 58.348,2.417 59.316,2.763C60.157,3.033 60.839,3.476 61.387,4.05C60.642,4.203 60.014,4.459 59.508,4.731C59.288,4.593 59.044,4.478 58.768,4.384C58.433,4.271 58.115,4.21 57.801,4.198C56.982,4.195 56.278,4.544 55.452,5.103L55.452,5.104C55.316,5.194 55.167,5.302 54.974,5.449L54.549,5.769C54.124,5.461 53.811,4.995 53.439,4.331L53.729,4.109C53.903,3.975 54.107,3.82 54.319,3.67C54.85,3.3 55.601,2.799 56.501,2.601ZM50.885,1.463C51.752,1.108 52.673,1.077 53.679,1.252C54.537,1.419 55.265,1.772 55.884,2.241C55.159,2.494 54.563,2.854 54.1,3.177C53.872,3.067 53.626,2.976 53.348,2.932C53.013,2.872 52.7,2.857 52.395,2.888L52.394,2.888C51.575,2.958 50.92,3.402 50.172,4.078L50.172,4.079C50.043,4.195 49.9,4.328 49.725,4.497L49.338,4.867C48.871,4.609 48.496,4.214 48.042,3.613C48.124,3.529 48.213,3.438 48.316,3.332C48.471,3.174 48.656,2.989 48.852,2.804C49.334,2.335 50.007,1.806 50.885,1.463ZM45,1.171L45.157,1.081C45.978,0.66 46.899,0.418 47.93,0.507C48.792,0.576 49.556,0.773 50.223,1.192C49.535,1.51 48.988,1.961 48.567,2.351C48.334,2.281 48.088,2.235 47.819,2.215C47.454,2.186 47.122,2.207 46.809,2.299C46.114,2.492 45.572,2.918 45,3.54L45,3.541L44.787,3.789L44.43,4.23C44.326,4.363 44.208,4.513 44.086,4.665C43.583,4.485 43.146,4.091 42.631,3.582L42.884,3.243L43.335,2.679C43.724,2.211 44.27,1.629 45,1.172L45,1.171ZM39.405,1.435C40.157,0.871 41.041,0.577 42.067,0.507C42.946,0.422 43.747,0.608 44.471,0.906C43.842,1.332 43.361,1.828 42.998,2.255C42.74,2.195 42.471,2.197 42.178,2.215C41.826,2.242 41.511,2.31 41.218,2.421L41.215,2.422C40.454,2.695 39.939,3.322 39.389,4.152L39.388,4.153C39.275,4.327 39.161,4.51 39.076,4.649C38.993,4.786 38.899,4.935 38.804,5.096C38.296,4.978 37.83,4.671 37.235,4.205L37.417,3.889L37.794,3.252C38.139,2.682 38.649,1.974 39.405,1.435ZM33.776,2.513C34.451,1.882 35.283,1.467 36.282,1.26C37.144,1.113 37.94,1.105 38.697,1.338C38.12,1.818 37.71,2.413 37.404,2.883C37.151,2.872 36.891,2.889 36.615,2.938C36.279,2.991 35.989,3.116 35.717,3.259L35.716,3.26C34.992,3.664 34.543,4.276 34.115,5.204L34.115,5.205C34.04,5.365 33.958,5.544 33.861,5.77L33.646,6.263C33.114,6.197 32.611,5.957 31.966,5.59L32.113,5.223C32.197,5.015 32.295,4.771 32.405,4.525L32.405,4.524C32.681,3.935 33.098,3.169 33.776,2.513ZM28.333,4.361C28.925,3.64 29.692,3.079 30.681,2.764C31.497,2.474 32.291,2.405 33.063,2.522C32.555,3.101 32.207,3.684 31.971,4.217C31.729,4.245 31.485,4.299 31.23,4.385C30.882,4.503 30.583,4.653 30.322,4.843C29.686,5.344 29.34,6.045 29.025,6.995L29.025,6.996L28.864,7.54C28.82,7.7 28.768,7.884 28.714,8.073C28.181,8.099 27.633,7.917 26.955,7.631C26.991,7.481 27.031,7.345 27.062,7.228C27.117,7.021 27.184,6.778 27.26,6.531L27.26,6.53C27.455,5.915 27.748,5.069 28.333,4.361ZM23.153,6.893C23.63,6.082 24.336,5.474 25.254,5.01C26.039,4.607 26.844,4.455 27.628,4.452C27.21,5.09 26.958,5.735 26.786,6.271C26.527,6.317 26.271,6.408 26.013,6.544C25.698,6.705 25.434,6.89 25.204,7.107L25.204,7.107L25.204,7.108C24.607,7.657 24.37,8.425 24.184,9.407C24.146,9.606 24.113,9.812 24.085,9.986C24.062,10.144 24.032,10.317 24.007,10.504C23.492,10.59 22.944,10.486 22.215,10.284L22.261,9.921C22.295,9.653 22.327,9.426 22.364,9.19L22.365,9.189C22.465,8.532 22.662,7.68 23.153,6.893ZM17.883,12.438C17.899,11.774 18.001,10.921 18.375,10.053C18.746,9.2 19.366,8.515 20.203,7.93C20.941,7.464 21.675,7.154 22.463,7.076C22.115,7.743 21.964,8.446 21.863,8.999C21.625,9.084 21.391,9.201 21.155,9.352C20.87,9.536 20.646,9.758 20.451,9.995L20.45,9.997C19.931,10.64 19.762,11.39 19.72,12.407L19.72,12.408C19.712,12.583 19.705,12.774 19.701,13.024L19.69,13.561C19.171,13.702 18.627,13.687 17.883,13.586L17.879,13.191C17.877,12.955 17.876,12.701 17.883,12.438ZM14.054,13.836C14.335,12.957 14.816,12.131 15.612,11.468C16.261,10.896 16.955,10.514 17.717,10.333C17.463,11.052 17.379,11.739 17.363,12.319C17.149,12.436 16.943,12.579 16.741,12.754C16.466,12.999 16.237,13.238 16.082,13.528L16.082,13.529C15.687,14.236 15.622,15.002 15.706,16.011L15.766,16.576C15.786,16.743 15.808,16.933 15.83,17.125C15.348,17.354 14.756,17.381 14.038,17.392C14.02,17.271 14,17.136 13.977,16.974C13.942,16.754 13.917,16.51 13.893,16.253C13.835,15.607 13.8,14.731 14.054,13.836ZM13.787,17.915C14.787,17.912 15.534,17.86 16.215,17.485C16.465,17.344 16.692,17.165 16.909,16.936C17.096,16.756 17.251,16.571 17.377,16.373C17.93,16.43 18.581,16.46 19.271,16.394C19.023,17.052 18.662,17.635 18.12,18.146C17.53,18.785 16.819,19.16 16.033,19.42C15.229,19.674 14.364,19.689 13.734,19.716L13.734,19.716L13,19.731C12.846,19.734 12.722,19.738 12.61,19.742C12.477,19.013 12.429,18.425 12.615,17.91C12.79,17.908 12.966,17.908 13.166,17.91C13.341,17.911 13.57,17.914 13.787,17.915ZM13.512,17.39L13.231,17.386L12.878,17.384L13.118,17.068L13.42,16.763L13.47,17.11L13.512,17.39ZM10.237,18.154C10.379,17.231 10.778,16.384 11.463,15.617C12.029,14.939 12.715,14.493 13.444,14.197C13.299,14.942 13.309,15.633 13.354,16.191C13.139,16.34 12.943,16.524 12.75,16.745C12.519,17.012 12.342,17.283 12.212,17.569L12.211,17.571C11.883,18.315 11.948,19.109 12.146,20.085L12.277,20.657C12.326,20.845 12.368,21.009 12.41,21.172C11.963,21.445 11.414,21.556 10.659,21.645L10.566,21.292C10.505,21.069 10.443,20.829 10.386,20.578C10.243,19.943 10.077,19.063 10.237,18.154ZM10.07,21.486L10.134,21.707L9.91,21.735L9.559,21.78L9.736,21.462C9.81,21.344 9.891,21.241 9.979,21.148L10.07,21.486ZM7.907,20.239C8.396,19.516 8.992,18.974 9.665,18.583C9.621,19.349 9.727,20.04 9.847,20.592C9.661,20.764 9.477,20.951 9.33,21.19C9.146,21.477 9.012,21.759 8.924,22.054C8.674,22.837 8.83,23.612 9.167,24.562L9.167,24.563C9.227,24.73 9.294,24.913 9.382,25.138C9.441,25.289 9.506,25.46 9.574,25.637C9.162,25.971 8.647,26.162 7.917,26.35C7.872,26.243 7.823,26.125 7.765,25.989C7.678,25.784 7.579,25.543 7.484,25.292C7.239,24.668 7.004,23.839 7.028,22.899C7.035,21.962 7.36,21.101 7.907,20.239ZM7.167,25.921L7.303,26.248L7.402,26.48L7.153,26.542L6.811,26.626L6.98,26.235L7.167,25.921ZM5.007,25.259C5.407,24.493 5.878,23.86 6.522,23.406C6.551,24.162 6.761,24.844 6.956,25.38C6.801,25.568 6.664,25.779 6.542,26.018C6.369,26.342 6.275,26.664 6.235,26.987C6.14,27.792 6.353,28.517 6.836,29.426L7.106,29.925L7.373,30.407C7.001,30.797 6.486,31.055 5.821,31.338L5.607,30.977C5.497,30.79 5.361,30.566 5.244,30.339L5.244,30.338C4.944,29.764 4.589,28.973 4.474,28.045C4.386,27.12 4.544,26.186 5.007,25.259ZM2.763,30.684C3.033,29.843 3.476,29.161 4.05,28.613C4.203,29.358 4.459,29.987 4.731,30.492C4.593,30.712 4.478,30.956 4.384,31.233C4.271,31.568 4.21,31.885 4.198,32.2C4.195,33.018 4.544,33.722 5.103,34.547L5.104,34.548C5.194,34.684 5.302,34.833 5.449,35.027L5.769,35.452C5.461,35.876 4.995,36.189 4.331,36.56L4.109,36.271C3.975,36.097 3.82,35.893 3.67,35.681C3.3,35.15 2.799,34.4 2.601,33.499C2.39,32.595 2.417,31.653 2.763,30.684ZM1.252,36.321C1.419,35.463 1.772,34.736 2.241,34.116C2.494,34.84 2.854,35.437 3.177,35.9C3.067,36.128 2.976,36.375 2.932,36.652C2.872,36.987 2.857,37.3 2.888,37.606L2.888,37.606C2.958,38.425 3.402,39.08 4.078,39.828L4.079,39.829C4.195,39.957 4.328,40.1 4.497,40.276L4.867,40.662C4.609,41.129 4.214,41.504 3.613,41.958C3.529,41.876 3.438,41.787 3.332,41.683C3.174,41.529 2.989,41.344 2.804,41.148C2.335,40.667 1.806,39.993 1.463,39.116C1.108,38.248 1.077,37.327 1.252,36.321ZM1.081,44.843C0.66,44.022 0.418,43.101 0.507,42.069C0.576,41.208 0.773,40.444 1.192,39.777C1.51,40.464 1.961,41.012 2.351,41.432C2.281,41.666 2.235,41.913 2.215,42.181C2.186,42.546 2.207,42.877 2.299,43.191C2.492,43.886 2.918,44.428 3.54,45L3.541,45L3.789,45.213L4.23,45.57C4.363,45.674 4.513,45.792 4.665,45.914C4.485,46.417 4.091,46.854 3.582,47.369L3.243,47.115L2.679,46.665C2.211,46.276 1.629,45.73 1.172,45L1.171,45L1.081,44.843ZM0.507,47.933C0.422,47.054 0.608,46.254 0.906,45.529C1.332,46.157 1.828,46.639 2.255,47.002C2.195,47.26 2.197,47.529 2.215,47.822C2.242,48.174 2.31,48.489 2.421,48.782L2.422,48.785C2.695,49.547 3.322,50.061 4.152,50.611L4.153,50.611C4.327,50.725 4.51,50.839 4.649,50.924C4.786,51.007 4.935,51.102 5.096,51.196C4.978,51.704 4.671,52.17 4.205,52.766L3.889,52.583L3.252,52.206C2.682,51.86 1.974,51.351 1.435,50.595C0.871,49.843 0.577,48.959 0.507,47.933ZM1.26,53.718C1.113,52.856 1.105,52.06 1.338,51.303C1.818,51.881 2.413,52.29 2.883,52.596C2.872,52.849 2.889,53.108 2.938,53.385C2.991,53.721 3.116,54.011 3.259,54.282L3.26,54.284C3.664,55.008 4.276,55.456 5.204,55.885L5.205,55.885C5.365,55.961 5.544,56.042 5.77,56.14L6.263,56.354C6.197,56.887 5.957,57.39 5.59,58.034L5.223,57.887C5.015,57.804 4.771,57.704 4.525,57.595L4.524,57.595C3.935,57.318 3.169,56.902 2.513,56.225C1.882,55.55 1.467,54.717 1.26,53.718ZM5.321,58.488L5.19,58.709L5.013,59.01L4.849,58.612L4.754,58.261L5.085,58.395L5.321,58.488ZM2.764,59.319C2.474,58.504 2.405,57.709 2.522,56.938C3.101,57.445 3.684,57.794 4.217,58.029C4.245,58.271 4.299,58.516 4.385,58.77C4.503,59.118 4.653,59.416 4.843,59.678C5.344,60.313 6.045,60.66 6.995,60.975L6.996,60.975L7.54,61.136C7.7,61.181 7.884,61.232 8.073,61.285C8.099,61.819 7.916,62.367 7.631,63.045C7.481,63.009 7.345,62.97 7.227,62.938C7.021,62.883 6.778,62.816 6.531,62.74L6.53,62.739C5.915,62.545 5.069,62.252 4.361,61.667C3.64,61.075 3.079,60.308 2.764,59.319ZM7.43,63.529L7.321,63.787L7.186,64.111L6.983,63.771L6.813,63.376L7.154,63.462L7.43,63.529ZM5.01,64.746C4.607,63.961 4.455,63.156 4.452,62.372C5.09,62.789 5.735,63.043 6.271,63.214C6.317,63.474 6.408,63.729 6.544,63.987C6.705,64.302 6.89,64.566 7.107,64.796L7.108,64.797C7.657,65.394 8.425,65.63 9.407,65.816C9.606,65.854 9.812,65.887 9.986,65.914C10.144,65.938 10.317,65.968 10.504,65.993C10.59,66.508 10.486,67.056 10.284,67.785L9.921,67.738C9.653,67.705 9.426,67.674 9.19,67.636L9.189,67.636C8.532,67.534 7.68,67.338 6.893,66.847C6.082,66.37 5.474,65.664 5.01,64.746ZM10.136,68.298L10.072,68.52L9.981,68.859L9.758,68.572L9.566,68.225L9.913,68.27L10.136,68.298ZM7.93,69.798C7.464,69.059 7.154,68.324 7.076,67.537C7.743,67.885 8.446,68.036 8.999,68.138C9.084,68.375 9.201,68.609 9.352,68.845C9.536,69.13 9.758,69.354 9.995,69.549L9.997,69.55C10.64,70.069 11.39,70.238 12.407,70.28L12.408,70.28C12.583,70.288 12.774,70.295 13.024,70.299L13.561,70.31C13.702,70.829 13.687,71.373 13.586,72.116L13.191,72.121C12.955,72.123 12.701,72.124 12.437,72.117C11.774,72.101 10.921,71.999 10.053,71.625C9.2,71.254 8.515,70.634 7.93,69.798ZM13.512,72.641L13.474,72.896L13.424,73.241L13.122,72.938L12.901,72.647L13.257,72.645L13.512,72.641ZM11.468,74.388C10.896,73.739 10.514,73.045 10.333,72.282C11.052,72.536 11.739,72.621 12.319,72.637C12.436,72.851 12.579,73.057 12.754,73.26C12.999,73.534 13.238,73.763 13.528,73.918L13.529,73.919C14.237,74.313 15.002,74.378 16.011,74.294L16.577,74.234C16.743,74.215 16.933,74.192 17.125,74.171C17.354,74.652 17.381,75.244 17.392,75.963C17.271,75.979 17.136,75.999 16.974,76.023C16.754,76.059 16.51,76.083 16.253,76.107C15.607,76.165 14.731,76.199 13.836,75.946C12.957,75.665 12.131,75.185 11.468,74.388ZM17.39,76.488L17.386,76.77L17.384,77.122L17.067,76.882L16.763,76.58L17.11,76.53L17.39,76.488ZM15.617,78.536C14.939,77.971 14.493,77.285 14.197,76.557C14.942,76.701 15.633,76.69 16.191,76.646C16.34,76.861 16.524,77.057 16.745,77.249C17.012,77.48 17.283,77.657 17.569,77.788L17.571,77.788C18.315,78.117 19.109,78.052 20.085,77.854L20.657,77.723C20.845,77.674 21.009,77.632 21.172,77.59C21.445,78.037 21.556,78.587 21.645,79.341L21.292,79.435C21.069,79.494 20.829,79.557 20.578,79.614C19.943,79.757 19.062,79.924 18.154,79.763C17.231,79.62 16.384,79.222 15.617,78.536ZM20.239,82.093C19.516,81.604 18.974,81.008 18.583,80.335C19.349,80.38 20.04,80.273 20.592,80.153C20.764,80.339 20.951,80.523 21.19,80.671C21.477,80.854 21.759,80.987 22.054,81.076C22.837,81.326 23.612,81.17 24.562,80.833L24.563,80.833C24.73,80.773 24.913,80.705 25.138,80.618C25.289,80.56 25.46,80.493 25.637,80.426C25.971,80.838 26.162,81.353 26.35,82.082C26.243,82.128 26.125,82.177 25.989,82.235C25.784,82.321 25.543,82.421 25.292,82.516C24.668,82.761 23.839,82.996 22.899,82.972C21.962,82.965 21.101,82.641 20.239,82.093ZM28.045,85.526C27.12,85.613 26.186,85.456 25.259,84.993C24.493,84.594 23.86,84.121 23.406,83.478C24.162,83.449 24.844,83.238 25.38,83.044C25.568,83.199 25.779,83.336 26.018,83.459C26.342,83.632 26.664,83.725 26.987,83.765C27.792,83.86 28.517,83.646 29.426,83.163L29.925,82.894L30.407,82.627C30.797,82.999 31.055,83.514 31.338,84.179L30.977,84.393C30.79,84.503 30.566,84.639 30.339,84.756L30.338,84.756C29.764,85.057 28.973,85.411 28.045,85.526ZM33.499,87.399C32.595,87.609 31.653,87.584 30.684,87.236C29.843,86.967 29.161,86.523 28.613,85.949C29.358,85.798 29.987,85.541 30.492,85.27C30.712,85.407 30.956,85.521 31.233,85.615C31.568,85.729 31.885,85.79 32.2,85.802C33.018,85.805 33.722,85.456 34.547,84.896L34.548,84.896C34.684,84.806 34.833,84.698 35.027,84.551L35.452,84.231C35.876,84.539 36.189,85.005 36.56,85.67L36.271,85.891C36.097,86.024 35.893,86.18 35.681,86.33C35.15,86.699 34.4,87.201 33.499,87.399ZM39.116,88.536C38.248,88.892 37.327,88.923 36.321,88.747C35.463,88.581 34.736,88.229 34.116,87.76C34.84,87.506 35.437,87.146 35.9,86.823C36.128,86.933 36.375,87.023 36.652,87.068C36.987,87.128 37.3,87.143 37.606,87.112L37.606,87.112C38.425,87.042 39.08,86.599 39.828,85.922L39.829,85.921C39.957,85.805 40.1,85.672 40.276,85.503L40.662,85.133C41.129,85.392 41.504,85.786 41.958,86.388C41.876,86.471 41.787,86.562 41.683,86.668C41.529,86.825 41.344,87.011 41.148,87.196C40.667,87.665 39.993,88.193 39.116,88.536ZM45,88.829L44.843,88.919C44.022,89.341 43.101,89.582 42.07,89.493C41.208,89.424 40.444,89.228 39.777,88.808C40.464,88.49 41.012,88.039 41.432,87.649C41.666,87.719 41.913,87.765 42.181,87.785C42.546,87.813 42.877,87.793 43.192,87.7C43.886,87.508 44.428,87.082 45,86.46L45,86.459L45.213,86.211L45.57,85.77C45.674,85.638 45.792,85.487 45.914,85.335C46.417,85.515 46.854,85.909 47.369,86.418L47.115,86.758L46.665,87.321C46.276,87.788 45.73,88.371 45,88.827L45,88.829ZM50.595,88.564C49.843,89.129 48.959,89.423 47.933,89.493C47.054,89.578 46.254,89.392 45.529,89.094C46.157,88.668 46.639,88.172 47.002,87.745C47.26,87.805 47.529,87.803 47.822,87.784C48.174,87.758 48.489,87.69 48.782,87.579L48.785,87.578C49.547,87.305 50.061,86.679 50.611,85.848L50.611,85.847C50.725,85.673 50.839,85.49 50.924,85.351C51.007,85.214 51.102,85.064 51.196,84.904C51.704,85.022 52.17,85.328 52.766,85.795L52.583,86.111L52.206,86.748C51.86,87.318 51.351,88.026 50.595,88.564ZM56.225,87.487C55.55,88.118 54.717,88.533 53.718,88.74C52.856,88.887 52.06,88.895 51.303,88.661C51.881,88.182 52.29,87.588 52.596,87.117C52.849,87.128 53.108,87.111 53.385,87.062C53.721,87.009 54.011,86.884 54.282,86.74L54.284,86.739C55.008,86.337 55.457,85.724 55.885,84.797L55.885,84.795C55.961,84.636 56.042,84.456 56.14,84.23L56.354,83.737C56.887,83.803 57.39,84.043 58.034,84.41L57.887,84.777C57.804,84.985 57.704,85.229 57.595,85.476C57.318,86.065 56.902,86.831 56.225,87.487ZM61.667,85.64C61.075,86.36 60.308,86.921 59.319,87.236C58.504,87.526 57.709,87.595 56.938,87.479C57.445,86.899 57.794,86.316 58.029,85.782C58.271,85.755 58.516,85.7 58.77,85.614C59.118,85.497 59.416,85.347 59.678,85.157C60.313,84.656 60.66,83.955 60.975,83.005L61.136,82.46C61.181,82.3 61.232,82.115 61.286,81.927C61.819,81.901 62.367,82.083 63.045,82.369C63.009,82.519 62.97,82.655 62.938,82.772C62.883,82.979 62.816,83.223 62.74,83.469L62.739,83.47C62.545,84.085 62.253,84.931 61.667,85.64ZM66.847,83.107C66.37,83.918 65.664,84.525 64.746,84.99C63.961,85.394 63.156,85.546 62.372,85.548C62.789,84.91 63.043,84.265 63.214,83.729C63.474,83.683 63.729,83.593 63.987,83.456C64.302,83.295 64.566,83.11 64.796,82.893L64.797,82.892C65.394,82.343 65.63,81.574 65.816,80.593C65.854,80.395 65.887,80.188 65.914,80.014C65.938,79.856 65.968,79.683 65.993,79.496C66.508,79.409 67.056,79.514 67.785,79.716L67.738,80.079C67.705,80.347 67.674,80.574 67.636,80.811C67.534,81.469 67.338,82.319 66.847,83.107ZM72.117,77.563C72.101,78.226 71.999,79.078 71.625,79.947C71.254,80.8 70.634,81.485 69.798,82.07C69.059,82.536 68.324,82.847 67.537,82.924C67.885,82.257 68.036,81.555 68.138,81.002C68.375,80.915 68.609,80.8 68.845,80.648C69.13,80.464 69.354,80.242 69.549,80.005L69.55,80.003C70.069,79.36 70.237,78.61 70.28,77.593L70.28,77.592C70.288,77.417 70.295,77.227 70.299,76.976L70.31,76.438C70.829,76.298 71.373,76.312 72.116,76.414L72.121,76.809C72.123,77.045 72.124,77.299 72.117,77.563ZM75.946,76.164C75.665,77.044 75.185,77.869 74.388,78.532C73.739,79.104 73.045,79.486 72.282,79.668C72.536,78.948 72.621,78.261 72.637,77.681C72.851,77.564 73.057,77.421 73.26,77.245C73.534,77.001 73.763,76.762 73.918,76.472L73.919,76.471C74.313,75.764 74.378,74.998 74.294,73.988L74.234,73.424C74.215,73.257 74.192,73.067 74.171,72.874C74.652,72.646 75.244,72.619 75.963,72.608C75.979,72.729 75.999,72.863 76.023,73.026C76.059,73.246 76.083,73.49 76.107,73.747C76.165,74.393 76.199,75.269 75.946,76.164ZM76.213,72.085C75.214,72.089 74.466,72.14 73.785,72.516C73.535,72.656 73.309,72.835 73.091,73.064C72.904,73.244 72.749,73.429 72.623,73.627C72.069,73.57 71.419,73.54 70.729,73.606C70.977,72.947 71.339,72.365 71.88,71.854C72.47,71.215 73.182,70.841 73.968,70.58C74.771,70.326 75.636,70.311 76.266,70.283L76.267,70.283L77,70.269C77.154,70.266 77.278,70.263 77.39,70.259C77.523,70.986 77.57,71.575 77.385,72.09C77.21,72.092 77.034,72.093 76.835,72.091C76.659,72.089 76.43,72.086 76.213,72.085ZM76.488,72.61L76.77,72.613L77.122,72.616L76.882,72.933L76.58,73.237L76.53,72.891L76.488,72.61ZM79.763,71.846C79.62,72.769 79.222,73.616 78.536,74.383C77.971,75.061 77.285,75.507 76.557,75.803C76.701,75.058 76.69,74.367 76.646,73.809C76.861,73.66 77.057,73.476 77.249,73.255C77.48,72.988 77.657,72.718 77.788,72.431L77.788,72.429C78.117,71.685 78.052,70.891 77.854,69.915L77.723,69.344C77.674,69.155 77.632,68.99 77.59,68.828C78.037,68.555 78.587,68.443 79.341,68.355L79.435,68.708C79.495,68.931 79.557,69.171 79.614,69.422C79.757,70.057 79.924,70.938 79.763,71.846ZM79.931,68.515L79.866,68.293L80.091,68.265L80.44,68.22L80.264,68.538C80.19,68.656 80.109,68.76 80.021,68.852L79.931,68.515ZM82.093,69.762C81.604,70.484 81.008,71.025 80.335,71.417C80.38,70.651 80.273,69.961 80.153,69.408C80.339,69.236 80.523,69.049 80.67,68.81C80.854,68.523 80.987,68.24 81.076,67.946C81.326,67.162 81.17,66.388 80.833,65.438L80.832,65.438C80.773,65.27 80.705,65.087 80.618,64.862C80.56,64.712 80.493,64.54 80.426,64.363C80.838,64.029 81.353,63.838 82.082,63.649C82.128,63.757 82.177,63.874 82.235,64.011C82.321,64.216 82.421,64.457 82.516,64.707L82.516,64.708C82.761,65.332 82.996,66.161 82.972,67.101C82.965,68.038 82.641,68.899 82.093,69.762ZM82.834,64.079L82.697,63.752L82.598,63.52L82.847,63.459L83.188,63.373L83.021,63.766L82.834,64.079ZM84.993,64.741C84.594,65.508 84.121,66.14 83.478,66.594C83.449,65.838 83.238,65.155 83.044,64.62C83.199,64.432 83.336,64.221 83.459,63.982C83.632,63.657 83.725,63.336 83.765,63.013C83.86,62.207 83.646,61.483 83.163,60.574L82.894,60.075L82.627,59.594C82.999,59.203 83.514,58.944 84.179,58.661L84.393,59.022C84.503,59.21 84.639,59.434 84.756,59.66L84.756,59.661C85.057,60.236 85.411,61.026 85.526,61.954C85.613,62.881 85.456,63.814 84.993,64.741ZM87.236,59.316C86.967,60.157 86.523,60.839 85.949,61.387C85.798,60.642 85.541,60.014 85.27,59.508C85.407,59.288 85.521,59.044 85.615,58.768C85.729,58.433 85.79,58.115 85.802,57.801C85.805,56.982 85.456,56.278 84.896,55.452C84.806,55.316 84.698,55.167 84.551,54.974L84.231,54.549C84.539,54.124 85.005,53.811 85.67,53.439L85.891,53.729C86.024,53.903 86.18,54.107 86.33,54.319C86.699,54.85 87.201,55.601 87.399,56.501C87.609,57.404 87.584,58.348 87.236,59.316ZM88.747,53.679C88.581,54.537 88.229,55.265 87.76,55.884C87.506,55.159 87.146,54.563 86.823,54.1C86.933,53.872 87.023,53.625 87.068,53.348C87.128,53.013 87.143,52.7 87.112,52.395L87.112,52.394C87.042,51.575 86.599,50.92 85.922,50.172L85.921,50.172C85.805,50.043 85.672,49.9 85.503,49.725L85.133,49.338C85.392,48.871 85.786,48.496 86.388,48.042C86.471,48.123 86.562,48.213 86.668,48.316C86.825,48.471 87.011,48.656 87.196,48.852C87.664,49.334 88.193,50.007 88.536,50.885C88.892,51.752 88.923,52.673 88.747,53.679ZM89.493,47.931C89.424,48.792 89.228,49.556 88.808,50.223C88.49,49.535 88.039,48.988 87.649,48.567C87.719,48.334 87.765,48.088 87.785,47.819C87.813,47.454 87.793,47.122 87.7,46.809C87.508,46.114 87.082,45.572 86.46,45L86.459,45L86.211,44.787L85.77,44.43C85.638,44.326 85.487,44.208 85.335,44.086C85.515,43.583 85.909,43.146 86.418,42.631L86.757,42.885L87.321,43.335C87.788,43.724 88.371,44.27 88.827,45L88.829,45L88.919,45.157C89.341,45.978 89.582,46.899 89.493,47.931Z" style="fill:rgb(245,243,238);fill-rule:nonzero;"/></g></g></g></g></svg>