<?xml version="1.0" encoding="UTF-8" standalone="no"?>
<!DOCTYPE svg PUBLIC "-//W3C//DTD SVG 1.1//EN" "http://www.w3.org/Graphics/SVG/1.1/DTD/svg11.dtd">
<svg width="100%" height="100%" viewBox="0 0 7987 1657" version="1.1" xmlns="http://www.w3.org/2000/svg" xmlns:xlink="http://www.w3.org/1999/xlink" xml:space="preserve" xmlns:serif="http://www.serif.com/" style="fill-rule:evenodd;clip-rule:evenodd;stroke-linejoin:round;stroke-miterlimit:2;">
    <g transform="matrix(4.16667,0,0,4.16667,-3.12531,-9397.89)">
        <g id="Artboard1" transform="matrix(1,0,0,0.702352,-44,2049.47)">
            <rect x="44.75" y="293.327" width="1916.65" height="565.889" style="fill:none;"/>
            <g transform="matrix(1.51494,0,0,2.15695,-1009.99,-693.113)">
                <g transform="matrix(1,0,0,1,0,226.943)">
                    <g transform="matrix(0.910568,0,0,0.910568,60.298,-153.528)">
                        <path d="M793.06,539.333L793.06,502.922L876.626,502.922L876.626,577.535C860.629,588.438 846.483,595.86 834.186,599.799C821.89,603.739 807.306,605.708 790.433,605.708C769.661,605.708 752.729,602.167 739.637,595.084C726.545,588 716.397,577.455 709.195,563.448C701.992,549.44 698.391,533.364 698.391,515.218C698.391,496.117 702.33,479.503 710.21,465.377C718.089,451.25 729.629,440.525 744.83,433.203C756.688,427.553 772.646,424.727 792.702,424.727C812.041,424.727 826.506,426.478 836.096,429.98C845.687,433.482 853.645,438.914 859.973,446.276C866.3,453.637 871.055,462.969 874.239,474.27L822.069,483.582C819.92,476.976 816.279,471.923 811.146,468.421C806.013,464.919 799.466,463.168 791.508,463.168C779.649,463.168 770.198,467.287 763.155,475.524C756.111,483.761 752.59,496.794 752.59,514.621C752.59,533.563 756.151,547.093 763.274,555.21C770.397,563.328 780.326,567.387 793.06,567.387C799.108,567.387 804.878,566.512 810.37,564.761C815.861,563.01 822.149,560.025 829.232,555.807L829.232,539.333L793.06,539.333Z" style="fill:#F5F3EE;fill-rule:nonzero;"/>
                    </g>
                    <g transform="matrix(0.910568,0,0,0.942245,60.298,-169.904)">
                        <path d="M894.053,602.724L894.053,427.712L984.185,427.712C1000.9,427.712 1013.67,429.144 1022.51,432.01C1031.34,434.875 1038.46,440.187 1043.88,447.947C1049.29,455.707 1051.99,465.158 1051.99,476.3C1051.99,486.009 1049.92,494.386 1045.79,501.429C1041.65,508.473 1035.96,514.183 1028.71,518.561C1024.1,521.346 1017.77,523.654 1009.73,525.485C1016.18,527.634 1020.88,529.782 1023.82,531.931C1025.81,533.364 1028.69,536.428 1032.47,541.124C1036.26,545.819 1038.78,549.44 1040.06,551.987L1066.2,602.724L1005.08,602.724L976.187,549.241C972.526,542.317 969.263,537.821 966.398,535.751C962.498,533.045 958.081,531.692 953.146,531.692L948.371,531.692L948.371,602.724L894.053,602.724ZM948.371,498.624L971.173,498.624C973.64,498.624 978.415,497.828 985.498,496.236C989.08,495.52 992.005,493.69 994.273,490.745C996.541,487.8 997.675,484.418 997.675,480.598C997.675,474.947 995.885,470.609 992.303,467.585C988.722,464.561 981.997,463.049 972.128,463.049L948.371,463.049L948.371,498.624Z" style="fill:#F5F3EE;fill-rule:nonzero;"/>
                    </g>
                    <g transform="matrix(0.910568,0,0,0.942245,60.298,-169.904)">
                        <path d="M1175.79,573.834L1114.19,573.834L1105.71,602.724L1050.44,602.724L1116.22,427.712L1175.19,427.712L1240.97,602.724L1184.38,602.724L1175.79,573.834ZM1164.45,535.99L1145.11,473.077L1125.89,535.99L1164.45,535.99Z" style="fill:#F5F3EE;fill-rule:nonzero;"/>
                    </g>
                    <g transform="matrix(0.910568,0,0,0.910568,60.298,-153.528)">
                        <path d="M1354.98,531.215L1402.37,545.541C1399.19,558.832 1394.17,569.934 1387.33,578.848C1380.48,587.762 1371.99,594.487 1361.84,599.023C1351.69,603.56 1338.78,605.828 1323.1,605.828C1304.08,605.828 1288.54,603.062 1276.48,597.531C1264.43,592 1254.02,582.27 1245.27,568.342C1236.51,554.415 1232.13,536.587 1232.13,514.86C1232.13,485.89 1239.83,463.626 1255.23,448.066C1270.63,432.507 1292.42,424.727 1320.59,424.727C1342.64,424.727 1359.97,429.184 1372.59,438.098C1385.2,447.012 1394.57,460.701 1400.7,479.165L1352.95,489.79C1351.28,484.458 1349.52,480.558 1347.69,478.091C1344.67,473.952 1340.97,470.769 1336.59,468.54C1332.21,466.312 1327.32,465.197 1321.91,465.197C1309.65,465.197 1300.26,470.132 1293.73,480.001C1288.8,487.323 1286.33,498.823 1286.33,514.502C1286.33,533.921 1289.28,547.232 1295.17,554.434C1301.06,561.637 1309.33,565.238 1320,565.238C1330.34,565.238 1338.16,562.334 1343.46,556.524C1348.75,550.714 1352.59,542.278 1354.98,531.215Z" style="fill:#F5F3EE;fill-rule:nonzero;"/>
                    </g>
                    <g transform="matrix(0.910568,0,0,0.958395,60.298,-179.528)">
                        <path d="M1413.11,427.712L1558.04,427.712L1558.04,465.078L1467.31,465.078L1467.31,492.894L1551.47,492.894L1551.47,528.589L1467.31,528.589L1467.31,563.09L1560.67,563.09L1560.67,602.724L1413.11,602.724L1413.11,427.712Z" style="fill:#F5F3EE;fill-rule:nonzero;"/>
                    </g>
                </g>
                <g transform="matrix(1.05252,0,0,1.05252,-99.2687,211.867)">
                    <g transform="matrix(0.910568,0,0,0.910568,875.579,-156.246)">
                        <path d="M705.912,602.724L705.912,427.712L741.249,427.712L741.249,573.237L829.113,573.237L829.113,602.724L705.912,602.724Z" style="fill:#F5F3EE;fill-rule:nonzero;"/>
                    </g>
                    <g transform="matrix(0.910568,0,0,0.910568,875.579,-156.246)">
                        <rect x="847.849" y="427.712" width="35.337" height="175.012" style="fill:#F5F3EE;fill-rule:nonzero;"/>
                    </g>
                    <g transform="matrix(0.910568,0,0,0.910568,875.579,-156.246)">
                        <path d="M911.711,602.724L911.711,427.712L1031.69,427.712L1031.69,457.318L947.047,457.318L947.047,498.743L1020.11,498.743L1020.11,528.35L947.047,528.35L947.047,602.724L911.711,602.724Z" style="fill:#F5F3EE;fill-rule:nonzero;"/>
                    </g>
                    <g transform="matrix(0.910568,0,0,0.910568,875.579,-156.246)">
                        <path d="M1055.44,602.724L1055.44,427.712L1185.2,427.712L1185.2,457.318L1090.78,457.318L1090.78,496.117L1178.64,496.117L1178.64,525.604L1090.78,525.604L1090.78,573.237L1188.55,573.237L1188.55,602.724L1055.44,602.724Z" style="fill:#F5F3EE;fill-rule:nonzero;"/>
                    </g>
                </g>
                <g transform="matrix(1.28413,0,0,1.12451,-200.512,-213.736)">
                    <path d="M746.839,802.432L760.902,806.891C758.746,814.731 755.161,820.554 750.146,824.36C745.132,828.165 738.77,830.068 731.061,830.068C721.522,830.068 713.682,826.81 707.541,820.293C701.4,813.776 698.329,804.866 698.329,793.564C698.329,781.608 701.416,772.322 707.59,765.707C713.764,759.092 721.882,755.785 731.943,755.785C740.73,755.785 747.868,758.382 753.356,763.576C756.622,766.646 759.072,771.056 760.706,776.806L746.349,780.236C745.5,776.512 743.727,773.572 741.032,771.416C738.337,769.26 735.063,768.182 731.208,768.182C725.883,768.182 721.563,770.093 718.248,773.915C714.932,777.737 713.274,783.927 713.274,792.486C713.274,801.567 714.907,808.035 718.174,811.889C721.441,815.744 725.687,817.671 730.914,817.671C734.769,817.671 738.084,816.446 740.861,813.996C743.638,811.546 745.63,807.692 746.839,802.432Z" style="fill:#F5F3EE;fill-rule:nonzero;"/>
                </g>
                <g transform="matrix(1.28413,0,0,1.16287,-53.6244,-244.147)">
                    <path d="M771.189,828.843L771.189,757.01L785.693,757.01L785.693,785.283L814.113,785.283L814.113,757.01L828.617,757.01L828.617,828.843L814.113,828.843L814.113,797.435L785.693,797.435L785.693,828.843L771.189,828.843Z" style="fill:#F5F3EE;fill-rule:nonzero;"/>
                </g>
                <g transform="matrix(1.28413,0,0,1.14337,90.1802,-229.387)">
                    <path d="M841.305,757.01L855.809,757.01L855.809,795.916C855.809,802.089 855.988,806.091 856.348,807.92C856.968,810.86 858.446,813.221 860.782,815.001C863.118,816.781 866.311,817.671 870.361,817.671C874.477,817.671 877.581,816.83 879.671,815.148C881.762,813.466 883.02,811.399 883.444,808.949C883.869,806.499 884.081,802.432 884.081,796.749L884.081,757.01L898.585,757.01L898.585,794.74C898.585,803.363 898.193,809.456 897.409,813.016C896.625,816.577 895.18,819.582 893.073,822.032C890.966,824.482 888.148,826.434 884.62,827.888C881.092,829.341 876.486,830.068 870.802,830.068C863.943,830.068 858.74,829.276 855.196,827.692C851.652,826.107 848.851,824.049 846.793,821.518C844.735,818.986 843.379,816.332 842.726,813.555C841.778,809.439 841.305,803.363 841.305,795.328L841.305,757.01Z" style="fill:#F5F3EE;fill-rule:nonzero;"/>
                </g>
                <g transform="matrix(1.28413,0,0,1.16287,233.419,-244.147)">
                    <path d="M911.714,828.843L911.714,757.01L942.241,757.01C949.918,757.01 955.496,757.655 958.975,758.945C962.454,760.236 965.238,762.53 967.329,765.83C969.42,769.129 970.465,772.902 970.465,777.149C970.465,782.539 968.881,786.989 965.712,790.501C962.543,794.013 957.807,796.226 951.502,797.141C954.638,798.97 957.227,800.979 959.269,803.167C961.31,805.356 964.062,809.243 967.525,814.829L976.296,828.843L958.95,828.843L948.464,813.212C944.74,807.626 942.192,804.107 940.82,802.653C939.448,801.199 937.995,800.203 936.459,799.664C934.924,799.125 932.49,798.855 929.158,798.855L926.218,798.855L926.218,828.843L911.714,828.843ZM926.218,787.39L936.949,787.39C943.907,787.39 948.252,787.096 949.983,786.508C951.714,785.92 953.07,784.907 954.05,783.47C955.03,782.032 955.52,780.236 955.52,778.08C955.52,775.662 954.875,773.711 953.585,772.224C952.294,770.738 950.473,769.799 948.121,769.407C946.945,769.243 943.417,769.162 937.537,769.162L926.218,769.162L926.218,787.39Z" style="fill:#F5F3EE;fill-rule:nonzero;"/>
                </g>
                <g transform="matrix(1.28413,0,0,1.12451,389.556,-213.736)">
                    <path d="M1027.89,802.432L1041.95,806.891C1039.8,814.731 1036.21,820.554 1031.2,824.36C1026.18,828.165 1019.82,830.068 1012.11,830.068C1002.57,830.068 994.733,826.81 988.592,820.293C982.451,813.776 979.38,804.866 979.38,793.564C979.38,781.608 982.467,772.322 988.641,765.707C994.815,759.092 1002.93,755.785 1012.99,755.785C1021.78,755.785 1028.92,758.382 1034.41,763.576C1037.67,766.646 1040.12,771.056 1041.76,776.806L1027.4,780.236C1026.55,776.512 1024.78,773.572 1022.08,771.416C1019.39,769.26 1016.11,768.182 1012.26,768.182C1006.93,768.182 1002.61,770.093 999.299,773.915C995.983,777.737 994.325,783.927 994.325,792.486C994.325,801.567 995.958,808.035 999.225,811.889C1002.49,815.744 1006.74,817.671 1011.97,817.671C1015.82,817.671 1019.13,816.446 1021.91,813.996C1024.69,811.546 1026.68,807.692 1027.89,802.432Z" style="fill:#F5F3EE;fill-rule:nonzero;"/>
                </g>
                <g transform="matrix(1.28413,0,0,1.16287,536.444,-244.147)">
                    <path d="M1052.24,828.843L1052.24,757.01L1066.74,757.01L1066.74,785.283L1095.16,785.283L1095.16,757.01L1109.67,757.01L1109.67,828.843L1095.16,828.843L1095.16,797.435L1066.74,797.435L1066.74,828.843L1052.24,828.843Z" style="fill:#F5F3EE;fill-rule:nonzero;"/>
                </g>
            </g>
        </g>
    </g>
</svg>
